<?xml version="1.0" encoding="iso-8859-1"?>
<!-- Uploaded to: SVG Repo, www.svgrepo.com, Generator: SVG Repo Mixer Tools -->
<svg xmlns="http://www.w3.org/2000/svg" xmlns:xlink="http://www.w3.org/1999/xlink" version="1.1" id="Capa_1"  viewBox="0 0 470 470" xml:space="preserve" width="512" height="512">
<g>
	<path style="fill:#A2C352;" d="M223.245,36.176l-63.517,30.013L96.301,36.176c15.817-17.297,38.386-28.672,63.427-28.672   C184.819,7.504,207.419,18.818,223.245,36.176z"/>
	<path style="fill:#EF431D;" d="M350.19,36.176l-63.517,30.013l-63.427-30.013c15.817-17.297,38.386-28.672,63.427-28.672   C311.763,7.504,334.363,18.818,350.19,36.176z"/>
	<path style="fill:#A2C352;" d="M246.756,433.636l63.517-30.013l63.427,30.013c-15.817,17.297-38.386,28.672-63.427,28.672   C285.182,462.308,262.582,450.993,246.756,433.636z"/>
	<path style="fill:#EF431D;" d="M119.811,433.636l63.517-30.013l63.427,30.013c-15.817,17.297-38.386,28.672-63.427,28.672   C158.238,462.308,135.638,450.993,119.811,433.636z"/>
	<path style="fill:#A2C352;" d="M36.275,223.146l30.013,63.517L36.275,350.09c-17.297-15.817-28.672-38.386-28.672-63.427   C7.603,261.572,18.918,238.973,36.275,223.146z"/>
	<path style="fill:#EF431D;" d="M36.275,96.201l30.013,63.517l-30.013,63.427c-17.297-15.817-28.672-38.386-28.672-63.427   C7.603,134.628,18.918,112.028,36.275,96.201z"/>
	<path style="fill:#A2C352;" d="M433.726,246.656l-30.013-63.517l30.013-63.427c17.297,15.817,28.672,38.386,28.672,63.427   C462.398,208.229,451.083,230.829,433.726,246.656z"/>
	<path style="fill:#EF431D;" d="M433.726,373.6l-30.013-63.517l30.013-63.427c17.297,15.817,28.672,38.386,28.672,63.427   C462.398,335.174,451.083,357.773,433.726,373.6z"/>
	<path style="fill:#FDA162;" d="M350.19,36.176H96.301c-33.014,0-60.026,27.012-60.026,60.026V350.09   c0,5.362,0.71,10.564,2.061,15.526l27.942-27.942L337.754,66.189l27.962-27.962C360.754,36.886,355.552,36.176,350.19,36.176z"/>
	<path style="fill:#CB9385;" d="M66.278,337.675l-27.942,27.942c2.761,10.294,8.224,19.528,15.567,26.872l21.219-21.219   L66.278,337.675z"/>
	<path style="fill:#CB9385;" d="M365.716,38.227l-27.962,27.962l33.604,8.844l21.229-21.229   C385.245,46.46,376.011,40.998,365.716,38.227z"/>
	<path style="fill:#FDFA7B;" d="M371.359,75.032L75.122,371.269c-5.702-5.702-8.844-13.226-8.844-21.179v-12.415l68.87-202.617   l202.607-68.87h12.435C358.143,66.189,365.656,69.33,371.359,75.032z"/>
	<path style="fill:#FEFDCA;" d="M337.755,66.189L66.278,337.675V96.202c0.01-7.953,3.141-15.477,8.844-21.169   c5.702-5.702,13.226-8.844,21.179-8.844H337.755z"/>
	<path style="fill:#CB9385;" d="M416.098,77.313l-21.229,21.229l-51.182,335.094H373.7c33.014,0,60.026-27.012,60.026-60.026   V119.711C433.726,103.204,426.973,88.198,416.098,77.313z"/>
	<path style="fill:#FDA162;" d="M98.632,394.78l-21.219,21.219c10.885,10.885,25.891,17.637,42.398,17.637h223.876   c33.014,0,60.026-27.012,60.026-60.026L98.632,394.78z"/>
	<path style="fill:#FDFA7B;" d="M394.869,98.542L373.7,119.711l-30.013,283.902H373.7c7.953,0,15.467-3.141,21.169-8.834   c5.702-5.703,8.844-13.216,8.844-21.169V119.711C403.713,111.758,400.571,104.235,394.869,98.542z"/>
	<path style="fill:#FEFDCA;" d="M373.7,119.712V373.6c0,7.953-3.141,15.477-8.844,21.179c-5.702,5.692-13.216,8.834-21.169,8.834   H119.811c-7.953,0-15.477-3.141-21.179-8.834L373.7,119.712z"/>
	<path d="M397.889,59.207c1.406-1.407,2.196-3.314,2.196-5.304s-0.79-3.896-2.196-5.304c-12.002-12.001-27.659-18.94-44.395-19.748   C335.646,10.543,311.475,0.1,286.673,0.1c-23.206,0-45.922,9.217-63.421,25.516C205.738,9.251,182.985,0,159.725,0   c-24.648,0-48.787,10.481-66.729,28.854c-34.611,1.675-62.464,29.527-64.141,64.137C10.544,110.84,0.1,135.012,0.1,159.815   c0,23.206,9.217,45.922,25.516,63.421C9.251,240.75,0,263.503,0,286.764c0,24.646,10.479,48.784,28.851,66.725   c0.807,16.738,7.746,32.397,19.748,44.4c1.407,1.406,3.314,2.196,5.304,2.196s3.896-0.79,5.304-2.196L397.889,59.207z    M330.155,28.771h-86.851C256.24,19.966,271.339,15.1,286.673,15.1C302.083,15.1,317.22,19.966,330.155,28.771z M203.279,28.771   h-86.995C129.259,19.89,144.393,15,159.725,15C175.132,15,190.305,19.89,203.279,28.771z M15.1,159.815   c0-15.41,4.866-30.547,13.671-43.482v86.851C19.966,190.248,15.1,175.15,15.1,159.815z M15,286.764   c0-15.407,4.89-30.581,13.771-43.554v86.995C19.89,317.23,15,302.095,15,286.764z M54.272,381.608   c-6.815-9.048-10.502-19.967-10.502-31.417V96.297c0-28.963,23.563-52.526,52.525-52.526h253.896   c11.45,0,22.369,3.687,31.417,10.502L370.841,65.04c-6.095-4.069-13.218-6.256-20.649-6.257H238.25c-4.143,0-7.5,3.357-7.5,7.5   s3.357,7.5,7.5,7.5h111.94c3.39,0,6.668,0.792,9.663,2.244L76.028,359.853c-1.453-2.995-2.244-6.273-2.244-9.662V96.297   c0.001-5.948,2.361-11.584,6.646-15.868c4.284-4.285,9.919-6.645,15.866-6.646H208.25c4.143,0,7.5-3.357,7.5-7.5   s-3.357-7.5-7.5-7.5H96.295c-9.954,0.001-19.355,3.922-26.473,11.038c-7.117,7.118-11.038,16.52-11.039,26.475v253.896   c0,7.431,2.188,14.553,6.257,20.649L54.272,381.608z"/>
	<path d="M470,183.236c0-24.647-10.48-48.785-28.851-66.726c-0.807-16.737-7.747-32.396-19.748-44.399   c-1.407-1.406-3.314-2.196-5.304-2.196s-3.896,0.79-5.304,2.196l-21.201,21.201c-0.041,0.041-296.2,296.202-296.2,296.202   c-0.019,0.019-0.04,0.035-0.059,0.054s-0.035,0.04-0.054,0.06l-21.166,21.166c-2.929,2.93-2.929,7.678,0,10.607   c12.001,12,27.658,18.939,44.394,19.747c17.848,18.307,42.018,28.751,66.821,28.751c23.207,0,45.922-9.216,63.421-25.515   C264.262,460.749,287.015,470,310.275,470c24.648,0,48.787-10.481,66.729-28.854c34.611-1.675,62.465-29.527,64.141-64.137   c18.31-17.848,28.755-42.02,28.755-66.824c0-23.206-9.217-45.922-25.516-63.421C460.749,229.25,470,206.497,470,183.236z    M455,183.236c0,15.407-4.89,30.581-13.771,43.554v-86.995C450.11,152.771,455,167.905,455,183.236z M139.846,441.229h86.849   c-12.936,8.804-28.034,13.67-43.368,13.67C167.917,454.899,152.78,450.033,139.846,441.229z M266.721,441.229h86.995   C340.741,450.11,325.607,455,310.275,455C294.868,455,279.695,450.11,266.721,441.229z M426.229,373.704   c0,28.963-23.563,52.525-52.525,52.525H119.809c-11.45,0-22.369-3.687-31.416-10.501l10.768-10.769   c6.095,4.068,13.216,6.255,20.646,6.255h253.896c9.954-0.001,19.355-3.922,26.474-11.039c7.116-7.117,11.037-16.519,11.038-26.474   V261.748c0-4.143-3.357-7.5-7.5-7.5s-7.5,3.357-7.5,7.5v111.953c-0.001,5.948-2.36,11.583-6.646,15.867   c-4.284,4.285-9.92,6.646-15.867,6.646H119.807c-3.388,0-6.664-0.791-9.658-2.242l283.824-283.825   c1.452,2.994,2.242,6.271,2.243,9.659v111.941c0,4.143,3.357,7.5,7.5,7.5s7.5-3.357,7.5-7.5V119.806   c-0.001-7.43-2.188-14.551-6.255-20.646l10.768-10.768c6.815,9.048,10.502,19.967,10.502,31.417V373.704z M454.9,310.185   c0,15.41-4.866,30.547-13.671,43.482v-86.851C450.034,279.752,454.9,294.85,454.9,310.185z"/>
	<circle cx="116.305" cy="176.33" r="7.503"/>
	<circle cx="146.317" cy="206.343" r="7.503"/>
	<circle cx="353.693" cy="351.8" r="7.503"/>
</g>















</svg>