<?xml version="1.0" encoding="iso-8859-1"?>
<!-- Uploaded to: SVG Repo, www.svgrepo.com, Generator: SVG Repo Mixer Tools -->
<svg xmlns="http://www.w3.org/2000/svg" xmlns:xlink="http://www.w3.org/1999/xlink" version="1.1" id="Capa_1"  viewBox="0 0 470 470" xml:space="preserve" width="512" height="512">
<g>
	<path style="fill:#FD7555;" d="M150,180h-30v135h30c37.279,0,67.5-30.221,67.5-67.5C217.5,210.221,187.279,180,150,180z"/>
	<path style="fill:#FDA162;" d="M187.5,247.5c0-37.279-30.221-67.5-67.5-67.5H75c-37.279,0-67.5,30.221-67.5,67.5   C7.5,284.779,37.721,315,75,315h45C157.279,315,187.5,284.779,187.5,247.5z"/>
	<path style="fill:#FD7555;" d="M395,180h-30v135h30c37.279,0,67.5-30.221,67.5-67.5C462.5,210.221,432.279,180,395,180z"/>
	<path style="fill:#FDA162;" d="M432.5,247.5c0-37.279-30.221-67.5-67.5-67.5h-45c-37.279,0-67.5,30.221-67.5,67.5   c0,37.279,30.221,67.5,67.5,67.5h45C402.279,315,432.5,284.779,432.5,247.5z"/>
	<path style="fill:#FDCE6E;" d="M407.5,360l-51.667,65h30c16.5,0,34.269-12.807,39.487-28.46L437.5,360H407.5z"/>
	<path style="fill:#FDFA7B;" d="M32.5,360l12.18,36.54C49.898,412.193,67.667,425,84.167,425h271.667   c16.5,0,34.269-12.807,39.487-28.46L407.5,360H32.5z"/>
	<path style="fill:#FEFDCA;" d="M447.5,345h-425c-8.284,0-15,6.716-15,15s6.716,15,15,15h425c8.284,0,15-6.716,15-15   S455.784,345,447.5,345z"/>
	<path d="M75,322.5h75c41.355,0,75-33.645,75-75s-33.645-75-75-75h-30V45c0-4.143-3.358-7.5-7.5-7.5S105,40.857,105,45v127.5H75   c-41.355,0-75,33.645-75,75S33.645,322.5,75,322.5z M75,187.5h75c33.084,0,60,26.916,60,60s-26.916,60-60,60H75   c-33.084,0-60-26.916-60-60S41.916,187.5,75,187.5z"/>
	<circle cx="157.5" cy="277.5" r="7.5"/>
	<circle cx="67.5" cy="217.5" r="7.5"/>
	<path d="M320,322.5h75c41.355,0,75-33.645,75-75s-33.645-75-75-75h-30V45c0-4.143-3.358-7.5-7.5-7.5S350,40.857,350,45v127.5h-30   c-14.157,0-27.961,3.982-39.922,11.518c-3.504,2.208-4.556,6.839-2.348,10.344c2.208,3.503,6.838,4.558,10.343,2.348   c9.563-6.024,20.603-9.209,31.926-9.209h75c33.084,0,60,26.916,60,60s-26.916,60-60,60h-75c-33.084,0-60-26.916-60-60   c0-11.324,3.185-22.363,9.209-31.926c2.208-3.505,1.157-8.136-2.348-10.344c-3.505-2.208-8.136-1.156-10.344,2.348   C248.983,219.538,245,233.343,245,247.5C245,288.855,278.645,322.5,320,322.5z"/>
	<path d="M447.5,337.5h-425C10.093,337.5,0,347.594,0,360s10.093,22.5,22.5,22.5h9.594l5.47,16.411   c6.278,18.835,26.749,33.589,46.602,33.589h301.667c19.854,0,40.324-14.754,46.602-33.589l5.47-16.411h9.594   c12.407,0,22.5-10.094,22.5-22.5S459.907,337.5,447.5,337.5z M447.5,367.5h-14.838c-0.042,0-335.162,0-335.162,0   c-4.142,0-7.5,3.357-7.5,7.5s3.358,7.5,7.5,7.5h324.594l-3.889,11.667c-4.216,12.647-19.04,23.333-32.372,23.333H84.167   c-13.332,0-28.156-10.686-32.372-23.333L47.906,382.5H67.5c4.142,0,7.5-3.357,7.5-7.5s-3.358-7.5-7.5-7.5H37.369   c-0.027,0-14.869,0-14.869,0c-4.136,0-7.5-3.364-7.5-7.5s3.364-7.5,7.5-7.5h425c4.136,0,7.5,3.364,7.5,7.5   S451.636,367.5,447.5,367.5z"/>
	<circle cx="312.5" cy="217.5" r="7.5"/>
	<circle cx="402.5" cy="247.5" r="7.5"/>
	<circle cx="372.5" cy="277.5" r="7.5"/>
</g>















</svg>