<?xml version="1.0" encoding="iso-8859-1"?>
<!-- Uploaded to: SVG Repo, www.svgrepo.com, Generator: SVG Repo Mixer Tools -->
<svg xmlns="http://www.w3.org/2000/svg" xmlns:xlink="http://www.w3.org/1999/xlink" version="1.1" id="Capa_1"  viewBox="0 0 470 470" xml:space="preserve" width="512" height="512">
<g>
	<polygon style="fill:#FD7555;" points="432.5,345 402.5,385 432.5,425 462.5,425 462.5,345  "/>
	<rect x="7.5" y="345" style="fill:#FDA162;" width="425" height="80"/>
	<path style="fill:#FEFDCA;" d="M462.5,402.5c-114.079,0-172.072-5.099-228.157-10.029C178.581,387.569,120.921,382.5,7.5,382.5   c-4.143,0-7.5-3.357-7.5-7.5s3.357-7.5,7.5-7.5c114.079,0,172.072,5.099,228.157,10.029c55.762,4.901,113.422,9.971,226.843,9.971   c4.143,0,7.5,3.357,7.5,7.5S466.643,402.5,462.5,402.5z"/>
	<polygon style="fill:#FDCE6E;" points="402.5,45 372.5,180 402.5,315 432.5,315 432.5,45  "/>
	<path style="fill:#FDFA7B;" d="M37.5,45v105c24.853,0,45,20.147,45,45s-20.147,45-45,45v75h135l45-15l45,15h140V45H37.5z"/>
	<path style="fill:#FDA162;" d="M372.5,210l-10,30l10,30c16.569,0,30-13.431,30-30S389.069,210,372.5,210z"/>
	<path style="fill:#FDCE6E;" d="M342.5,240c0,16.569,13.431,30,30,30v-60C355.931,210,342.5,223.431,342.5,240z"/>
	<path style="fill:#FDA162;" d="M217.5,270l15,45h30C262.5,290.147,242.353,270,217.5,270z"/>
	<path style="fill:#FDCE6E;" d="M217.5,270c-24.853,0-45,20.147-45,45h60C232.5,290.147,225.784,270,217.5,270z"/>
	<path style="fill:#FDA162;" d="M142.5,165l-10,30l10,30c16.569,0,30-13.431,30-30S159.069,165,142.5,165z"/>
	<path style="fill:#FDCE6E;" d="M112.5,195c0,16.569,13.431,30,30,30v-60C125.931,165,112.5,178.431,112.5,195z"/>
	<path style="fill:#FDA162;" d="M257.5,75v90c24.853,0,45-20.147,45-45S282.353,75,257.5,75z"/>
	<path style="fill:#FDCE6E;" d="M272.5,120c0-24.853-6.716-45-15-45c-24.853,0-45,20.147-45,45s20.147,45,45,45   C265.784,165,272.5,144.853,272.5,120z"/>
	<path d="M462.5,337.5H7.5c-4.143,0-7.5,3.357-7.5,7.5v80c0,4.143,3.357,7.5,7.5,7.5h455c4.143,0,7.5-3.357,7.5-7.5v-80   C470,340.857,466.643,337.5,462.5,337.5z M455,352.5v34.992c-108.483-0.219-164.825-5.17-219.343-9.962   c-54.841-4.821-111.516-9.802-220.657-10.021V352.5H455z M15,417.5v-34.992c108.483,0.219,164.825,5.17,219.343,9.962   c54.841,4.821,111.516,9.802,220.657,10.021V417.5H15z"/>
	<path d="M257.5,172.5c28.948,0,52.5-23.552,52.5-52.5s-23.552-52.5-52.5-52.5c-7.918,0-15.534,1.724-22.637,5.122   c-3.736,1.788-5.316,6.267-3.528,10.003c1.79,3.737,6.27,5.314,10.003,3.528c5.065-2.424,10.503-3.653,16.162-3.653   c20.678,0,37.5,16.822,37.5,37.5s-16.822,37.5-37.5,37.5S220,140.678,220,120c0-5.658,1.229-11.096,3.653-16.162   c1.788-3.736,0.208-8.215-3.528-10.003c-3.738-1.79-8.215-0.208-10.003,3.528C206.724,104.467,205,112.083,205,120   C205,148.948,228.552,172.5,257.5,172.5z"/>
	<path d="M37.5,322.5h395c4.143,0,7.5-3.357,7.5-7.5V45c0-4.143-3.357-7.5-7.5-7.5h-395c-4.143,0-7.5,3.357-7.5,7.5v105   c0,4.143,3.357,7.5,7.5,7.5c20.678,0,37.5,16.822,37.5,37.5s-16.822,37.5-37.5,37.5c-4.143,0-7.5,3.357-7.5,7.5v75   C30,319.143,33.357,322.5,37.5,322.5z M180.755,307.5c3.484-17.096,18.635-30,36.745-30s33.261,12.904,36.745,30H180.755z    M45,246.966c25.408-3.65,45-25.563,45-51.966s-19.592-48.315-45-51.966V52.5h380v255H269.456c-3.652-25.407-25.554-45-51.956-45   s-48.304,19.593-51.956,45H45V246.966z"/>
	<circle cx="375" cy="112.5" r="7.5"/>
	<circle cx="345" cy="142.5" r="7.5"/>
	<circle cx="105" cy="97.5" r="7.5"/>
	<circle cx="290" cy="247.5" r="7.5"/>
	<path d="M372.5,277.5c20.678,0,37.5-16.822,37.5-37.5s-16.822-37.5-37.5-37.5c-3.273,0-6.538,0.429-9.703,1.274   c-4.002,1.069-6.379,5.181-5.31,9.183c1.069,4.001,5.181,6.374,9.183,5.31c1.902-0.509,3.864-0.767,5.83-0.767   c12.406,0,22.5,10.094,22.5,22.5s-10.094,22.5-22.5,22.5S350,252.406,350,240c0-1.966,0.258-3.928,0.767-5.83   c1.069-4.002-1.308-8.113-5.31-9.183c-3.997-1.063-8.112,1.308-9.183,5.31c-0.846,3.165-1.274,6.43-1.274,9.703   C335,260.678,351.822,277.5,372.5,277.5z"/>
	<path d="M180,195c0-20.678-16.822-37.5-37.5-37.5c-3.273,0-6.538,0.429-9.703,1.274c-4.002,1.069-6.379,5.181-5.31,9.183   c1.07,4.002,5.18,6.378,9.183,5.31c1.902-0.509,3.864-0.767,5.83-0.767c12.406,0,22.5,10.094,22.5,22.5s-10.094,22.5-22.5,22.5   S120,207.406,120,195c0-1.966,0.258-3.928,0.767-5.83c1.069-4.002-1.308-8.113-5.31-9.183c-3.997-1.063-8.112,1.308-9.183,5.31   c-0.846,3.165-1.274,6.43-1.274,9.703c0,20.678,16.822,37.5,37.5,37.5S180,215.678,180,195z"/>
</g>















</svg>