<?xml version="1.0" encoding="iso-8859-1"?>
<!-- Uploaded to: SVG Repo, www.svgrepo.com, Generator: SVG Repo Mixer Tools -->
<svg xmlns="http://www.w3.org/2000/svg" xmlns:xlink="http://www.w3.org/1999/xlink" version="1.1" id="Capa_1"  viewBox="0 0 470 470" xml:space="preserve" width="512" height="512">
<g>
	<polygon style="fill:#EF431D;" points="215.004,182.5 215.004,302.5 165.004,322.5 165.004,162.5  "/>
	<polygon style="fill:#FD7555;" points="185.004,162.5 185.004,322.5 30.004,302.5 30.004,182.5  "/>
	<path style="fill:#3F4C53;" d="M155.004,92.5h-30l60,90h30v-30C215.004,119.5,188.004,92.5,155.004,92.5z"/>
	<path style="fill:#3F4C53;" d="M185.004,302.5l-15.84,156.11c4.44,2.48,9.55,3.89,15,3.89c17.03,0,30.84-13.8,30.84-30.83V302.5   H185.004z"/>
	<path style="fill:#66C6FE;" d="M426.524,222.5l-60-30v140l60-30c8.1-5.39,13.48-14.59,13.48-25v-30   C440.004,237.09,434.624,227.89,426.524,222.5z"/>
	<path style="fill:#99D9FF;" d="M410.004,247.5v30c0,10.41-5.38,19.61-13.48,25l-64.025,20l-64.025-20   c-8.1-5.39-13.47-14.59-13.47-25v-30c0-10.41,5.37-19.61,13.47-25l64.025-20l64.025,20   C404.624,227.89,410.004,237.09,410.004,247.5z"/>
	<path style="fill:#99D9FF;" d="M426.524,302.5h-30l-17.36,160h30c17.03,0,30.84-13.8,30.84-30.83V327.5   C440.004,317.09,434.624,307.89,426.524,302.5z"/>
	<path style="fill:#99D9FF;" d="M430.394,140.98l-40.39-48.48h-30l36.52,130h30c8.1-5.39,13.48-14.59,13.48-25v-30   C440.004,159.25,435.684,147.31,430.394,140.98z"/>
	<polygon style="fill:#EF431D;" points="165.004,7.5 165.004,62.5 135.004,62.5 105.004,35 135.004,7.5  "/>
	<polygon style="fill:#CCECFF;" points="390.004,7.5 390.004,62.5 360.004,62.5 330.004,35 360.004,7.5  "/>
	<path style="fill:#CCECFF;" d="M410.004,327.5v104.17c0,17.03-13.81,30.83-30.84,30.83h-93.33c-17.03,0-30.83-13.8-30.83-30.83   V327.5c0-10.41,5.37-19.61,13.47-25h128.05C404.624,307.89,410.004,317.09,410.004,327.5z"/>
	<path style="fill:#CCECFF;" d="M410.004,167.5v30c0,10.41-5.38,19.61-13.48,25h-128.05c-8.1-5.39-13.47-14.59-13.47-25v-30   c0-8.25,4.32-20.19,9.6-26.52l40.4-48.48h55l40.39,48.48C405.684,147.31,410.004,159.25,410.004,167.5z"/>
	<path style="fill:#975D50;" d="M185.004,302.5v129.17c0,11.59-6.39,21.68-15.84,26.94c-9.44-5.26-15.83-15.35-15.83-26.94   c0,17.03-13.8,30.83-30.83,30.83s-30.84-13.8-30.84-30.83c0,17.03-13.8,30.83-30.83,30.83s-30.83-13.8-30.83-30.83V302.5H185.004z"/>
	<path style="fill:#975D50;" d="M185.004,152.5v30h-155v-30c0-33,27-60,60-60h35C158.004,92.5,185.004,119.5,185.004,152.5z"/>
	<rect x="305.004" y="7.5" style="fill:#FFFFFF;" width="55" height="55"/>
	<rect x="80.004" y="7.5" style="fill:#FD7555;" width="55" height="55"/>
	<path d="M155,85H90c-37.22,0-67.5,30.28-67.5,67.5v279.167C22.5,452.804,39.696,470,60.833,470   c12.625,0,23.845-6.136,30.833-15.581C98.655,463.864,109.875,470,122.5,470s23.845-6.136,30.833-15.581   c6.989,9.445,18.208,15.581,30.833,15.581c21.137,0,38.333-17.196,38.333-38.333V152.5C222.5,115.28,192.22,85,155,85z M207.5,295   h-170V190h170V295z M184.167,455c-12.866,0-23.333-10.467-23.333-23.333c0-4.142-3.358-7.5-7.5-7.5s-7.5,3.358-7.5,7.5   c0,12.866-10.467,23.333-23.333,23.333c-12.866,0-23.333-10.467-23.333-23.333c0-4.142-3.358-7.5-7.5-7.5s-7.5,3.358-7.5,7.5   c0,12.866-10.467,23.333-23.333,23.333C47.967,455,37.5,444.533,37.5,431.667V310h170v121.667   C207.5,444.533,197.033,455,184.167,455z M207.5,175h-170v-22.5c0-28.949,23.551-52.5,52.5-52.5h65c28.949,0,52.5,23.551,52.5,52.5   V175z"/>
	<circle cx="121.667" cy="352.084" r="7.5"/>
	<circle cx="155" cy="137.5" r="7.5"/>
	<circle cx="91.667" cy="382.084" r="7.5"/>
	<path d="M70,70h105c4.142,0,7.5-3.358,7.5-7.5S179.142,55,175,55h-2.5V7.5c0-4.142-3.358-7.5-7.5-7.5H80   c-4.142,0-7.5,3.358-7.5,7.5V55H70c-4.142,0-7.5,3.358-7.5,7.5S65.858,70,70,70z M87.5,15h70v40h-70V15z"/>
	<path d="M295,70h105c4.142,0,7.5-3.358,7.5-7.5S404.143,55,400,55h-2.5V7.5c0-4.142-3.358-7.5-7.5-7.5h-85   c-4.142,0-7.5,3.358-7.5,7.5V55H295c-4.142,0-7.5,3.358-7.5,7.5S290.858,70,295,70z M312.5,15h70v40h-70V15z"/>
	<path d="M447.5,167.5c0-9.934-4.981-23.693-11.341-31.325l-40.397-48.477C394.336,85.989,392.226,85,390,85h-85   c-2.226,0-4.337,0.989-5.762,2.699l-40.397,48.477c-6.359,7.631-11.341,21.391-11.341,31.325v30c0,9.342,3.477,18.195,9.592,25   c-6.115,6.805-9.592,15.658-9.592,25v30c0,9.342,3.477,18.195,9.592,25c-6.115,6.805-9.592,15.658-9.592,25v104.167   c0,21.137,17.196,38.333,38.333,38.333h123.333c21.137,0,38.333-17.196,38.333-38.333V327.5c0-9.342-3.477-18.195-9.592-25   c6.115-6.805,9.592-15.658,9.592-25v-30c0-9.342-3.477-18.195-9.592-25c6.115-6.805,9.592-15.658,9.592-25V167.5z M432.5,197.5   c0,7.529-3.786,14.539-10.128,18.753c-2.092,1.39-3.349,3.735-3.349,6.247s1.257,4.856,3.349,6.247   c6.342,4.214,10.128,11.225,10.128,18.753v30c0,7.529-3.786,14.539-10.128,18.753c-2.092,1.39-3.349,3.735-3.349,6.247   s1.257,4.856,3.349,6.247c6.342,4.214,10.128,11.225,10.128,18.753v104.167c0,12.866-10.467,23.333-23.333,23.333H285.833   c-12.866,0-23.333-10.467-23.333-23.333V327.5c0-7.528,3.786-14.539,10.128-18.753c2.092-1.39,3.349-3.735,3.349-6.247   s-1.257-4.856-3.349-6.247c-6.342-4.214-10.128-11.225-10.128-18.753v-30c0-7.528,3.786-14.539,10.128-18.753   c2.092-1.39,3.349-3.735,3.349-6.247s-1.257-4.856-3.349-6.247c-6.342-4.214-10.128-11.225-10.128-18.753v-30   c0-6.544,3.675-16.695,7.865-21.722L308.513,100h77.975l38.148,45.778c4.189,5.027,7.864,15.178,7.864,21.722V197.5z"/>
	<path d="M396.523,215h-98.046c-4.142,0-7.5,3.358-7.5,7.5s3.358,7.5,7.5,7.5h98.046c4.142,0,7.5-3.358,7.5-7.5   S400.665,215,396.523,215z"/>
	<path d="M396.523,295h-98.046c-4.142,0-7.5,3.358-7.5,7.5s3.358,7.5,7.5,7.5h98.046c4.142,0,7.5-3.358,7.5-7.5   S400.665,295,396.523,295z"/>
</g>















</svg>