<?xml version="1.0" encoding="iso-8859-1"?>
<!-- Uploaded to: SVG Repo, www.svgrepo.com, Generator: SVG Repo Mixer Tools -->
<svg xmlns="http://www.w3.org/2000/svg" xmlns:xlink="http://www.w3.org/1999/xlink" version="1.1" id="Capa_1"  viewBox="0 0 470 470" xml:space="preserve" width="512" height="512">
<g>
	<path style="fill:#FE9F88;" d="M117.775,217.305l-40,20C61.723,264.474,52.5,296.158,52.5,330v60h192.598l28.862-172.693   L117.775,217.305z"/>
	<path style="fill:#FD7555;" d="M349.848,217.308l-75.888-0.001C249.562,248.337,235,287.464,235,330c0,21.02,0,60,0,60h146   c0,0,0-38.979,0-60C381,287.469,369.361,248.337,349.848,217.308z"/>
	<path style="fill:#EF431D;" d="M413.871,293.681h-20l9.066-35.224c-4.97-11.652-11.122-22.678-18.298-32.936   c-8.577,2.695-16.692,6.427-24.215,11.032L352.916,390h54.479c6.54-18.793,10.106-38.979,10.106-60   C417.5,317.562,416.244,305.419,413.871,293.681z"/>
	<path style="fill:#FD7555;" d="M402.929,258.458c-10.921,2.212-20.947,6.875-29.507,13.369L351,330h30   c0-18.937,14.422-34.503,32.88-36.32C411.411,281.45,407.712,269.668,402.929,258.458z"/>
	<path style="fill:#FE9F88;" d="M341.586,205.296C299.566,230.928,271.5,277.177,271.5,330v65H381v-65   C381,281.773,366.028,237.924,341.586,205.296z"/>
	<path style="fill:#FD7555;" d="M360.423,236.552C328.985,255.794,308,290.441,308,330v65h36.5v-65   c0-23.753,11.355-44.842,28.923-58.172C370.086,259.418,365.707,247.608,360.423,236.552z"/>
	<path style="fill:#FEC8BB;" d="M235,184c-80.634,0-146,65.366-146,146v65h109.5v-65c0-20.158,16.342-36.5,36.5-36.5   c1.226,0,2.436,0.063,3.631,0.181c7.71-38.166,27.316-72.018,54.798-97.508C275.536,188.35,255.777,184,235,184z"/>
	<path style="fill:#FE9F88;" d="M235,220.5c-60.475,0-109.5,49.025-109.5,109.5v65H162v-65c0-40.317,32.683-73,73-73   c4.992,0,9.867,0.504,14.578,1.459c4.974-11.649,11.122-22.677,18.298-32.934C257.498,222.262,246.455,220.5,235,220.5z"/>
	<path style="fill:#FDCE6E;" d="M407.5,397.5l-51.667,65h30c16.5,0,34.269-12.807,39.487-28.46l12.18-36.54H407.5z"/>
	<path style="fill:#FDFA7B;" d="M32.5,397.5l12.18,36.54c5.218,15.653,22.987,28.46,39.487,28.46h271.667   c16.5,0,34.269-12.807,39.487-28.46l12.18-36.54H32.5z"/>
	<path style="fill:#FEFDCA;" d="M447.5,382.5h-425c-8.284,0-15,6.716-15,15s6.716,15,15,15h425c8.284,0,15-6.716,15-15   S455.784,382.5,447.5,382.5z"/>
	<path style="fill:#B4462F;" d="M238.89,147.565l125.359,97.506c5.611-4.28,11.844-8.071,22.882-8.071   c1.829,0,3.512,0.115,5.096,0.308C361.087,184.604,304.21,148.934,238.89,147.565z"/>
	<path style="fill:#EF431D;" d="M238.89,147.565c-1.295-0.027-2.588-0.065-3.89-0.065c-66.95,0-125.468,36.058-157.225,89.805   c1.579-0.192,3.256-0.305,5.078-0.305c25.357,0,25.357,20,50.714,20c25.356,0,25.356-20,50.712-20c25.357,0,25.357,20,50.714,20   c25.356,0,25.356-20,50.712-20c25.357,0,25.357,20,50.714,20c14.318,0,20.552-6.377,27.83-11.929   C340.368,188.404,293.346,149.346,238.89,147.565z"/>
	<path style="fill:#FFCFB2;" d="M195,90.001c0,15.662,4.471,23.858,8.415,31.09c1.361,2.496,3.935,3.91,6.591,3.91   c1.213,0,2.444-0.295,3.584-0.917c3.637-1.983,4.977-6.539,2.993-10.175c-3.533-6.477-6.583-12.07-6.583-23.907   c0-11.837,3.051-17.432,6.584-23.909C220.529,58.86,225,50.664,225,35.001c0-15.631-4.454-23.825-8.394-31.046   C215.341,1.601,212.857,0,209.997,0c-4.142,0-7.5,3.358-7.5,7.5c0,1.307,0.336,2.535,0.924,3.605   C206.951,17.578,210,23.171,210,35.001c0,11.837-3.051,17.432-6.584,23.909C199.471,66.142,195,74.338,195,90.001z"/>
	<path style="fill:#FFCFB2;" d="M245,90.001c0,15.662,4.471,23.858,8.415,31.09c1.361,2.496,3.935,3.91,6.591,3.91   c1.213,0,2.444-0.295,3.584-0.917c3.637-1.983,4.977-6.539,2.993-10.175c-3.533-6.477-6.583-12.07-6.583-23.907   c0-11.837,3.051-17.432,6.584-23.909C270.529,58.86,275,50.664,275,35.001c0-15.631-4.454-23.825-8.394-31.046   C265.341,1.601,262.857,0,259.997,0c-4.142,0-7.5,3.358-7.5,7.5c0,1.307,0.336,2.535,0.924,3.605   C256.951,17.578,260,23.171,260,35.001c0,11.837-3.051,17.432-6.584,23.909C249.471,66.142,245,74.338,245,90.001z"/>
	<path d="M447.5,375H425v-45c0-104.767-85.233-190-190-190S45,225.233,45,330v22.5c0,4.142,3.358,7.5,7.5,7.5s7.5-3.358,7.5-7.5V330   c0-31.028,8.128-60.189,22.349-85.485c0.169-0.002,0.334-0.015,0.504-0.015c9.573,0,14.289,3.343,19.832,7.696   C88.816,275.731,81.5,302.477,81.5,330v45h-59C10.093,375,0,385.093,0,397.5S10.093,420,22.5,420h9.594l5.47,16.411   C43.843,455.246,64.313,470,84.167,470h301.667c19.854,0,40.324-14.754,46.602-33.589l5.47-16.411h9.594   c12.407,0,22.5-10.093,22.5-22.5S459.907,375,447.5,375z M388.5,375v-45c0-12.614,7.956-23.398,19.354-27.37   C409.262,311.55,410,320.69,410,330v45H388.5z M308,352.5c-4.142,0-7.5,3.358-7.5,7.5v15H279v-45   c0-28.656,8.565-55.865,24.825-79.126c0.851,0.645,1.707,1.317,2.592,2.015c4.133,3.26,8.908,7.019,15.695,9.356   C308.101,281.947,300.5,305.566,300.5,330c0,4.142,3.358,7.5,7.5,7.5s7.5-3.358,7.5-7.5c0-24.079,8.483-47.237,23.916-65.591   c13.373-0.779,20.888-6.697,27.004-11.52c5.941-4.687,10.635-8.389,20.711-8.389c0.176,0,0.346,0.013,0.52,0.015   c1.659,2.951,3.239,5.952,4.729,9.006C359.8,264.224,337,295.013,337,330v45h-21.5v-15C315.5,355.858,312.142,352.5,308,352.5z    M206,375v-45c0-14.148,10.187-25.955,23.609-28.49c-1.402,9.355-2.109,18.861-2.109,28.49v45H206z M169.5,375v-45   c0-36.117,29.383-65.5,65.5-65.5c1.351,0,2.701,0.056,4.05,0.139c-2.582,7.027-4.73,14.176-6.449,21.429   C209.451,287.318,191,306.543,191,330v45H169.5z M242.5,330c0-11.77,1.155-23.339,3.424-34.648   c0.025-0.108,0.048-0.217,0.068-0.328c2.574-12.698,6.572-25.062,11.971-37c2.631-1.672,4.916-3.468,7.03-5.135   c5.942-4.687,10.635-8.389,20.711-8.389c1.494,0,2.858,0.09,4.138,0.244C272.906,269.982,264,299.24,264,330v45h-21.5V330z    M352,330c0-28.949,19.174-54.369,46.393-62.659c2.558,6.647,4.72,13.487,6.46,20.494C386.502,293.272,373.5,310.143,373.5,330v45   H352V330z M235,155c59.444,0,112.052,29.8,143.694,75.238c-10.069,1.827-16.333,6.747-21.565,10.874   c-5.941,4.687-10.635,8.389-20.711,8.389c-10.077,0-14.77-3.702-20.712-8.389c-6.559-5.173-14.721-11.611-30.001-11.611   c-15.28,0-23.442,6.438-30,11.611c-5.942,4.687-10.635,8.389-20.711,8.389c-10.077,0-14.77-3.702-20.712-8.389   c-6.559-5.173-14.721-11.611-30.001-11.611c-15.28,0-23.442,6.438-30.001,11.611c-5.942,4.687-10.635,8.389-20.711,8.389   c-10.077,0-14.77-3.702-20.712-8.389c-5.229-4.124-11.49-9.042-21.55-10.871C122.946,184.801,175.554,155,235,155z M96.5,330   c0-24.538,6.447-48.386,18.668-69.43c4.794,2.289,10.689,3.93,18.399,3.93c1.608,0,3.12-0.086,4.577-0.219   C125.182,283.352,118,306.108,118,330c0,4.142,3.358,7.5,7.5,7.5s7.5-3.358,7.5-7.5c0-34.377,17.058-66.057,45.69-85.045   c1.677-0.29,3.514-0.455,5.589-0.455c10.076,0,14.77,3.702,20.712,8.389c0.673,0.531,1.369,1.077,2.082,1.626   C176.413,265.895,154.5,295.429,154.5,330v45H133v-15c0-4.142-3.358-7.5-7.5-7.5s-7.5,3.358-7.5,7.5v15H96.5V330z M447.5,405h-350   c-4.142,0-7.5,3.358-7.5,7.5s3.358,7.5,7.5,7.5h324.594l-3.889,11.668C413.989,444.315,399.165,455,385.833,455H84.167   c-13.332,0-28.156-10.685-32.372-23.332L47.906,420H67.5c4.142,0,7.5-3.358,7.5-7.5s-3.358-7.5-7.5-7.5h-45   c-4.136,0-7.5-3.364-7.5-7.5s3.364-7.5,7.5-7.5h425c4.136,0,7.5,3.364,7.5,7.5S451.636,405,447.5,405z"/>
</g>















</svg>