<?xml version="1.0" encoding="iso-8859-1"?>
<!-- Uploaded to: SVG Repo, www.svgrepo.com, Generator: SVG Repo Mixer Tools -->
<svg xmlns="http://www.w3.org/2000/svg" xmlns:xlink="http://www.w3.org/1999/xlink" version="1.1" id="Capa_1"  viewBox="0 0 470 470" xml:space="preserve" width="512" height="512">
<g>
	<path style="fill:#EF431D;" d="M205,422.5c11.04,0,20,8.95,20,20s-8.96,20-20,20c-10.34,0-20.39-1.26-30-3.63l-30-351.92l60,0.04   V422.5z"/>
	<path style="fill:#FD7555;" d="M175,106.95v351.92c-54.55-13.43-95-62.67-95-121.37V106.84L175,106.95z"/>
	<path style="fill:#84B044;" d="M185,57.5h-30l30,76.69c8.78,7.8,19.1,13.29,30,15.99V87.5C215,71,201.5,57.5,185,57.5z"/>
	<path style="fill:#A2C352;" d="M155,57.5h-55c-16.5,0-30,13.5-30,30v62.68c14.42-3.58,27.85-12.04,38.02-24.29   c6,18.37,18.5,33.35,34.48,41.61c15.97-8.26,28.47-23.24,34.48-41.61c2.49,3,5.17,5.77,8.02,8.3V87.5C185,71,171.5,57.5,155,57.5z"/>
	<path style="fill:#EF431D;" d="M360,363.12L256.57,9.36c2.56-1.19,5.42-1.86,8.43-1.86c69.03,0,125,55.96,125,125v230.66   L360,363.12z"/>
	<path style="fill:#FD7555;" d="M360,363.12V132.5c0-61.68-44.67-112.92-103.43-123.14C249.74,12.53,245,19.46,245,27.5   c0,11.05,8.95,20,20,20v315.51L360,363.12z"/>
	<path style="fill:#84B044;" d="M370,412.5h-30l30-76.69c8.78-7.8,19.1-13.29,30-15.99v62.68C400,399,386.5,412.5,370,412.5z"/>
	<path style="fill:#A2C352;" d="M340,412.5h-55c-16.5,0-30-13.5-30-30v-62.68c14.42,3.58,27.85,12.04,38.02,24.29   c6-18.37,18.5-33.35,34.48-41.61c15.97,8.26,28.47,23.24,34.48,41.61c2.49-3,5.17-5.77,8.02-8.3v46.69   C370,399,356.5,412.5,340,412.5z"/>
	<circle cx="110" cy="306.844" r="7.5"/>
	<circle cx="140" cy="336.844" r="7.5"/>
	<path d="M212.5,416.04V157.277c0.232,0.06,0.462,0.127,0.694,0.184c2.239,0.555,4.608,0.049,6.426-1.373s2.879-3.6,2.879-5.907   L222.5,87.5c0-20.678-16.822-37.5-37.5-37.5h-35.001V7.5c0-4.142-3.357-7.5-7.5-7.5s-7.5,3.358-7.5,7.5V50H100   c-20.678,0-37.5,16.822-37.5,37.5l-0.001,62.681c0,2.307,1.062,4.485,2.879,5.907c1.817,1.421,4.186,1.924,6.426,1.373   c12.29-3.047,23.917-9.343,33.646-18.099c7.47,15.05,19.3,27.406,33.605,34.801c1.081,0.558,2.263,0.837,3.444,0.837   s2.364-0.279,3.443-0.837c14.308-7.395,26.137-19.75,33.607-34.801c5.458,4.914,11.514,9.051,17.95,12.276V422.5   c0,4.142,3.357,7.5,7.5,7.5c6.893,0,12.5,5.607,12.5,12.5S211.893,455,205,455c-64.79,0-117.5-52.71-117.5-117.5V176.844   c0-4.142-3.357-7.5-7.5-7.5s-7.5,3.358-7.5,7.5V337.5C72.5,410.561,131.939,470,205,470c15.163,0,27.5-12.336,27.5-27.5   C232.5,429.936,224.03,419.312,212.5,416.04z M182.749,121.099c-1.744-2.102-4.494-3.089-7.176-2.577   c-2.683,0.512-4.875,2.441-5.724,5.038c-4.899,14.994-14.758,27.672-27.351,35.342c-12.593-7.67-22.45-20.348-27.35-35.342   c-0.849-2.596-3.041-4.526-5.724-5.038c-0.469-0.089-0.938-0.133-1.406-0.133c-2.206,0-4.33,0.975-5.77,2.709   c-6.807,8.199-15.377,14.624-24.751,18.66L77.5,87.5C77.5,75.093,87.594,65,100,65h85c12.406,0,22.5,10.093,22.5,22.5   l-0.001,52.259C198.126,135.723,189.555,129.297,182.749,121.099z"/>
	<path d="M404.622,313.912c-1.817-1.421-4.188-1.926-6.426-1.373c-0.233,0.058-0.464,0.125-0.696,0.185V132.5   C397.5,59.439,338.061,0,265,0c-15.163,0-27.5,12.336-27.5,27.5c0,12.565,8.47,23.188,20,26.46v239.052c0,4.142,3.357,7.5,7.5,7.5   s7.5-3.358,7.5-7.5V47.5c0-4.142-3.357-7.5-7.5-7.5c-6.893,0-12.5-5.607-12.5-12.5S258.107,15,265,15   c64.79,0,117.5,52.71,117.5,117.5v185.864c-6.435,3.224-12.491,7.362-17.949,12.274c-7.47-15.05-19.3-27.406-33.605-34.801   c-2.162-1.116-4.729-1.116-6.888,0c-14.308,7.395-26.137,19.75-33.607,34.801c-9.728-8.757-21.354-15.052-33.645-18.099   c-2.238-0.555-4.608-0.049-6.426,1.373s-2.879,3.6-2.879,5.907L247.5,382.5c0,20.678,16.822,37.5,37.5,37.5h35.001v42.5   c0,4.142,3.357,7.5,7.5,7.5s7.5-3.358,7.5-7.5V420H370c20.678,0,37.5-16.822,37.5-37.5l0.001-62.681   C407.501,317.512,406.439,315.333,404.622,313.912z M392.5,382.5c0,12.407-10.094,22.5-22.5,22.5h-85   c-12.406,0-22.5-10.093-22.5-22.5l0.001-52.259c9.373,4.036,17.944,10.462,24.75,18.66c1.744,2.102,4.491,3.089,7.176,2.577   c2.683-0.512,4.875-2.441,5.724-5.038c4.899-14.994,14.758-27.672,27.351-35.342c12.593,7.67,22.45,20.348,27.35,35.342   c0.849,2.596,3.041,4.526,5.724,5.038c2.681,0.512,5.432-0.474,7.176-2.577c6.807-8.199,15.377-14.624,24.751-18.66L392.5,382.5z"/>
	<circle cx="350" cy="132.5" r="7.5"/>
</g>















</svg>