<?xml version="1.0" encoding="iso-8859-1"?>
<!-- Uploaded to: SVG Repo, www.svgrepo.com, Generator: SVG Repo Mixer Tools -->
<svg xmlns="http://www.w3.org/2000/svg" xmlns:xlink="http://www.w3.org/1999/xlink" version="1.1" id="Capa_1"  viewBox="0 0 470 470" xml:space="preserve" width="512" height="512">
<g>
	<polygon style="fill:#FDA162;" points="387.5,429.996 447.5,429.996 447.5,399.996 417.5,379.996 387.5,399.996  "/>
	<rect x="387.5" y="339.996" style="fill:#FD7555;" width="60" height="60"/>
	<polygon style="fill:#FDA162;" points="22.5,429.996 82.5,429.996 82.5,399.996 52.5,379.996 22.5,399.996  "/>
	<rect x="22.5" y="339.996" style="fill:#FD7555;" width="60" height="60"/>
	<polygon style="fill:#FD7555;" points="432.5,289.996 402.5,329.996 432.5,369.996 462.5,369.996 462.5,289.996  "/>
	<rect x="7.5" y="289.996" style="fill:#FDA162;" width="425" height="80"/>
	<path style="fill:#3F4C53;" d="M127.5,49.995h-15l-30,105l30,105h15c49.5,0,90-40.5,90-90v-30   C217.5,90.495,177,49.995,127.5,49.995z"/>
	<path style="fill:#496A7E;" d="M97.5,49.995c-49.5,0-90,40.5-90,90v30c0,49.5,40.5,90,90,90h15v-210H97.5z"/>
	<path style="fill:#FFFFFF;" d="M127.5,79.995h-30c-33.084,0-60,26.916-60,60v30c0,33.084,26.916,60,60,60h30   c33.084,0,60-26.916,60-60v-30C187.5,106.911,160.584,79.995,127.5,79.995z"/>
	<path style="fill:#C1D560;" d="M112.5,119.995c15.867,0,29.26,10.562,33.553,25.037l-43.516,43.516   C88.062,184.256,77.5,170.863,77.5,154.995C77.5,135.666,93.17,119.995,112.5,119.995z"/>
	<path style="fill:#FD7555;" d="M146.053,145.032c0.937,3.159,1.447,6.501,1.447,9.963c0,19.33-15.67,35-35,35   c-3.463,0-6.805-0.511-9.963-1.447C103.287,164.848,122.353,145.783,146.053,145.032z"/>
	<path style="fill:none;stroke:#FEFDCA;stroke-width:15;stroke-linecap:round;stroke-linejoin:round;stroke-miterlimit:10;" d="   M7.5,319.996c227.5,0,227.5,20,455,20"/>
	<path style="fill:#FDCE6E;" d="M462.5,187.495c0-16.569-13.431-30-30-30l-10-60l-60-20l40,182.5h30c16.569,0,30-13.431,30-30   c0-8.304-3.374-15.818-8.825-21.25C459.126,203.314,462.5,195.799,462.5,187.495z"/>
	<path style="fill:#FFFFFF;" d="M432.5,229.996c0-8.304-3.374-15.818-8.825-21.25c5.451-5.432,8.825-12.947,8.825-21.25   c0-16.569-13.431-30-30-30v-80l-110,10l-10,70c-16.569,0-30,13.431-30,30c0,8.304,3.374,15.818,8.825,21.25   c-5.451,5.432-8.825,12.947-8.825,21.25c0,16.569,13.431,30,30,30h120C419.069,259.996,432.5,246.564,432.5,229.996z"/>
	<path style="fill:#FD7555;" d="M357.5,49.995v40c35.841,0,65,29.159,65,65c0,11.046,8.954,20,20,20s20-8.954,20-20   C462.5,97.098,415.397,49.995,357.5,49.995z"/>
	<path style="fill:#FDA162;" d="M252.5,154.995c0,11.046,8.954,20,20,20s20-8.954,20-20c0-35.841,29.159-65,65-65v-40   C299.603,49.995,252.5,97.098,252.5,154.995z"/>
	<path style="fill:#3F4C53;" d="M377.5,41.74c-6.497-1.144-13.18-1.745-20-1.745s-13.503,0.6-20,1.745v218.256h40V41.74z"/>
	<path d="M462.5,282.496H7.5c-4.142,0-7.5,3.357-7.5,7.5v80c0,4.143,3.358,7.5,7.5,7.5H15v52.5c0,4.143,3.358,7.5,7.5,7.5h60   c4.142,0,7.5-3.357,7.5-7.5v-30c0-4.143-3.358-7.5-7.5-7.5s-7.5,3.357-7.5,7.5v22.5H30v-45h410v45h-45v-22.5   c0-4.143-3.357-7.5-7.5-7.5s-7.5,3.357-7.5,7.5v30c0,4.143,3.357,7.5,7.5,7.5h60c4.143,0,7.5-3.357,7.5-7.5v-52.5h7.5   c4.143,0,7.5-3.357,7.5-7.5v-80C470,285.853,466.643,282.496,462.5,282.496z M455,297.496v34.992   c-108.483-0.219-164.825-5.17-219.343-9.962c-54.84-4.821-111.515-9.802-220.657-10.021v-15.008H455z M15,362.496v-34.992   c108.483,0.219,164.826,5.17,219.343,9.962c54.84,4.821,111.515,9.802,220.657,10.021v15.008H15z"/>
	<path d="M100.559,195.776c0.084,0.023,0.165,0.051,0.249,0.071c3.717,1.065,7.636,1.648,11.691,1.648   c23.435,0,42.5-19.065,42.5-42.5c0-4.056-0.583-7.977-1.649-11.695c-0.016-0.068-0.039-0.133-0.057-0.2   c-5.159-17.662-21.488-30.606-40.794-30.606c-4.887,0-9.691,0.83-14.277,2.467c-3.901,1.392-5.936,5.683-4.543,9.584   c1.392,3.901,5.685,5.938,9.584,4.543c2.964-1.058,6.072-1.594,9.236-1.594c9.224,0,17.396,4.57,22.388,11.56   c-18.82,4.664-33.664,19.508-38.327,38.328C89.57,172.392,85,164.22,85,154.996c0-3.164,0.536-6.271,1.594-9.236   c1.392-3.901-0.643-8.192-4.544-9.584c-3.901-1.393-8.192,0.643-9.584,4.543C70.83,145.306,70,150.109,70,154.996   C70,174.285,82.921,190.603,100.559,195.776z M139.941,153.285c0.035,0.566,0.059,1.136,0.059,1.711   c0,15.163-12.336,27.5-27.5,27.5c-0.575,0-1.144-0.024-1.711-0.059C113.794,167.824,125.329,156.289,139.941,153.285z"/>
	<path d="M97.5,267.496h30c53.762,0,97.5-43.738,97.5-97.5v-30c0-53.762-43.738-97.5-97.5-97.5h-30c-53.762,0-97.5,43.738-97.5,97.5   v30C0,223.757,43.738,267.496,97.5,267.496z M15,139.996c0-45.49,37.009-82.5,82.5-82.5h30c45.491,0,82.5,37.01,82.5,82.5v30   c0,45.49-37.009,82.5-82.5,82.5h-30c-45.491,0-82.5-37.01-82.5-82.5V139.996z"/>
	<path d="M97.5,237.495h30c37.22,0,67.5-30.28,67.5-67.5v-30c0-37.22-30.28-67.5-67.5-67.5h-30c-37.22,0-67.5,30.28-67.5,67.5v30   C30,207.214,60.28,237.495,97.5,237.495z M45,139.995c0-28.948,23.551-52.5,52.5-52.5h30c28.949,0,52.5,23.552,52.5,52.5v30   c0,28.948-23.551,52.5-52.5,52.5h-30c-28.949,0-52.5-23.552-52.5-52.5V139.995z"/>
	<path d="M465.609,169.874c2.773-4.293,4.391-9.399,4.391-14.878c0-11.968-1.901-23.57-5.432-34.494   c-0.026-0.091-0.044-0.182-0.073-0.272c-0.034-0.106-0.079-0.205-0.118-0.308c-7.358-22.344-21.562-41.798-40.355-55.622   c-0.13-0.108-0.257-0.218-0.396-0.319c-0.11-0.08-0.225-0.147-0.338-0.22c-11.297-8.17-24.222-14.312-38.288-17.851v-4.17   c0-3.641-2.614-6.755-6.2-7.387c-14.006-2.465-28.594-2.465-42.6,0c-3.586,0.632-6.2,3.746-6.2,7.387v4.17   c-14.067,3.539-26.991,9.682-38.288,17.851c-0.113,0.073-0.228,0.14-0.338,0.22c-0.139,0.101-0.266,0.211-0.396,0.319   c-18.793,13.824-32.998,33.279-40.355,55.623c-0.038,0.103-0.083,0.202-0.117,0.307c-0.029,0.09-0.048,0.181-0.073,0.272   c-3.531,10.923-5.432,22.526-5.432,34.494c0,5.48,1.618,10.586,4.391,14.878c-2.885,5.391-4.391,11.385-4.391,17.622   c0,7.702,2.305,15.047,6.59,21.25c-4.285,6.203-6.59,13.548-6.59,21.25c0,20.678,16.822,37.5,37.5,37.5h95   c4.143,0,7.5-3.357,7.5-7.5V104.512c18.288,9.932,30,29.101,30,50.483c0,15.163,12.337,27.5,27.5,27.5   c4.005,0,7.809-0.868,11.245-2.414c0.823,2.357,1.255,4.85,1.255,7.414c0,6.024-2.351,11.685-6.619,15.938   c-1.412,1.407-2.206,3.318-2.206,5.313s0.794,3.905,2.206,5.313c4.269,4.253,6.619,9.913,6.619,15.938   c0,12.406-10.094,22.5-22.5,22.5h-25c-4.143,0-7.5,3.357-7.5,7.5s3.357,7.5,7.5,7.5h25c20.678,0,37.5-16.822,37.5-37.5   c0-7.702-2.305-15.047-6.59-21.25c4.285-6.203,6.59-13.548,6.59-21.25C470,181.259,468.494,175.265,465.609,169.874z M370,48.221   v3.757c0,0.038,0,41.062,0,41.062c0,0.025,0,0.051,0,0.076v159.379h-25V93.116c0-0.025,0-0.051,0-0.076V52.017   c0-0.038,0-3.796,0-3.796C353.291,47.256,361.709,47.256,370,48.221z M294.314,80.787l1.279,1.76   c1.467,2.02,3.754,3.093,6.073,3.093c1.528,0,3.071-0.466,4.402-1.434c3.352-2.435,4.094-7.124,1.659-10.476l-1.287-1.772   c7.25-4.471,15.148-8.032,23.56-10.502v26.471c-27.13,11.105-45,37.399-45,67.068c0,6.893-5.607,12.5-12.5,12.5   c-3.4,0-6.484-1.369-8.74-3.579c-0.029-0.027-0.059-0.053-0.088-0.08c-2.267-2.264-3.672-5.391-3.672-8.841   c0-7.856,0.964-15.524,2.751-22.9l2.08,0.676c0.771,0.25,1.552,0.369,2.32,0.369c3.161,0,6.101-2.015,7.131-5.184   c1.28-3.939-0.875-8.171-4.814-9.451l-2.087-0.678C273.313,103.495,282.586,90.797,294.314,80.787z M260,229.996   c0-6.024,2.351-11.685,6.619-15.938c1.412-1.407,2.206-3.318,2.206-5.313s-0.794-3.905-2.206-5.313   c-4.269-4.253-6.619-9.913-6.619-15.938c0-2.564,0.432-5.057,1.255-7.414c3.436,1.546,7.24,2.414,11.245,2.414   c15.163,0,27.5-12.337,27.5-27.5c0-21.383,11.712-40.551,30-50.483v147.983h-47.5C270.094,252.496,260,242.402,260,229.996z    M430,154.996c0-29.669-17.87-55.963-45-67.068V61.457c8.412,2.47,16.31,6.032,23.56,10.502l-1.287,1.772   c-2.435,3.352-1.692,8.041,1.659,10.476c1.331,0.968,2.873,1.434,4.402,1.434c2.318,0,4.606-1.073,6.073-3.093l1.279-1.76   c11.727,10.01,21.001,22.708,26.933,37.041l-2.087,0.678c-3.939,1.28-6.095,5.512-4.814,9.451c1.03,3.169,3.97,5.184,7.131,5.184   c0.769,0,1.55-0.119,2.32-0.369l2.08-0.676c1.787,7.375,2.751,15.043,2.751,22.9c0,3.45-1.405,6.577-3.672,8.841   c-0.029,0.027-0.059,0.053-0.088,0.08c-2.256,2.21-5.339,3.579-8.74,3.579C435.607,167.496,430,161.888,430,154.996z"/>
</g>















</svg>