<svg xmlns:xlink="http://www.w3.org/1999/xlink" xmlns="http://www.w3.org/2000/svg" width="400" height="400"
     fill-rule="evenodd" stroke-linejoin="round" stroke-miterlimit="2">
    <style><![CDATA[.B{fill:#fce2f7}.C{fill-rule:nonzero}]]></style>
    <g transform="matrix(.081921 .006195 -.005891 .077903 -12.4636 -15.5412)" class="B C">
        <g transform="matrix(.94182 -.138222 .131441 .990396 -46.7128 45.7325)">
            <use xlink:href="#J"/>
            <use xlink:href="#K"/>
            <use xlink:href="#L"/>
            <path d="M441.805 396.004H220.02c-5.524 0-10 4.48-10 10 0 5.486 4.514 10 10 10h221.785c5.486 0 10-4.514 10-10 0-5.52-4.477-10-10-10z"/>
            <use xlink:href="#M"/>
        </g>
        <g transform="matrix(.94182 -.138222 .131441 .990396 4807.79 -340.308)">
            <use xlink:href="#J"/>
            <path d="M96.879 199.148c.25.602.562 1.18.922 1.731a9.92 9.92 0 0 0 1.238 1.519c1.88 1.865 4.422 2.916 7.07 2.922.655.001 1.308-.063 1.95-.191a10.1 10.1 0 0 0 1.871-.57c.606-.248 1.185-.556 1.73-.918.551-.36 1.059-.782 1.52-1.243s.879-.976 1.242-1.519.666-1.127.918-1.731c.25-.597.441-1.226.57-1.867.131-.646.197-1.302.199-1.961a9.97 9.97 0 0 0-.199-1.949c-.121-.641-.32-1.269-.57-1.871a10.57 10.57 0 0 0-.918-1.73c-.363-.54-.781-1.059-1.242-1.52s-.972-.879-1.52-1.238-1.124-.673-1.73-.922a10.28 10.28 0 0 0-1.871-.57c-1.289-.258-2.61-.258-3.899 0a10.52 10.52 0 0 0-1.879.57c-.602.252-1.179.561-1.722.922s-1.057.775-1.52 1.238-.879.98-1.238 1.52c-.359.547-.668 1.126-.922 1.73s-.447 1.23-.578 1.871a9.97 9.97 0 0 0-.192 1.949c0 .66.063 1.313.192 1.961.129.637.328 1.27.578 1.867z"/>
            <use xlink:href="#M"/>
        </g>
        <g transform="matrix(.94182 -.138222 .131441 .990396 5174.9 4764.68)">
            <use xlink:href="#J"/>
            <use xlink:href="#N"/>
        </g>
        <g transform="matrix(.94182 -.138222 .131441 .990396 319.902 5150.75)">
            <use xlink:href="#J"/>
            <path d="M347.59 130.281c.25.598.558 1.18.922 1.719.367.551.789 1.059 1.25 1.52.457.472.968.878 1.519 1.25a10.11 10.11 0 0 0 1.719.921c.604.249 1.231.44 1.871.571.649.129 1.301.187 1.961.187.648 0 1.309-.058 1.949-.187a9.93 9.93 0 0 0 1.867-.571 10.22 10.22 0 0 0 1.731-.921c.551-.372 1.062-.778 1.519-1.25.461-.461.883-.969 1.243-1.52.359-.539.668-1.121.918-1.719a10.28 10.28 0 0 0 .57-1.871c.133-.648.199-1.301.199-1.961 0-.648-.066-1.308-.199-1.949s-.32-1.27-.57-1.871c-.25-.609-.559-1.188-.918-1.731s-.782-1.058-1.243-1.519-.968-.879-1.519-1.238c-.539-.36-1.129-.672-1.731-.922a10.33 10.33 0 0 0-1.867-.571 10.01 10.01 0 0 0-3.91 0c-.64.131-1.267.322-1.871.571s-1.18.562-1.719.922c-.551.359-1.062.781-1.519 1.238s-.883.973-1.25 1.519-.672 1.122-.922 1.731a9.93 9.93 0 0 0-.57 1.871c-.129.641-.188 1.301-.188 1.949a10.01 10.01 0 0 0 .188 1.961c.132.64.322 1.266.57 1.871z"/>
            <use xlink:href="#K"/>
            <use xlink:href="#L"/>
            <use xlink:href="#N"/>
        </g>
    </g>
    <g transform="matrix(.078125 0 0 .078125 -17.4314 217.768)">
        <clipPath id="A">
            <path d="M0 0h512.001v512.001H0z"/>
        </clipPath>
        <g clip-path="url(#A)" class="B C">
            <use xlink:href="#O"/>
            <path d="M312.933 127.987c-1.984-.262-3.982-.393-5.983-.394-22.717 0-42.087 17.005-45.055 39.555-3.274 24.868 14.293 47.764 39.161 51.038 1.984.262 3.982.393 5.983.394 22.716 0 42.086-17.005 45.055-39.557 3.273-24.867-14.294-47.762-39.161-51.036zm19.333 48.426c-1.664 12.637-12.509 22.166-25.227 22.166-1.118 0-2.253-.074-3.372-.222-13.935-1.835-23.777-14.664-21.943-28.599 1.664-12.636 12.508-22.164 25.226-22.164 1.118 0 2.253.074 3.372.222 13.934 1.836 23.778 14.664 21.944 28.597zm-21.935 75.961c-1.984-.262-3.982-.393-5.983-.394-22.717 0-42.087 17.005-45.055 39.556-1.587 12.047 1.613 23.989 9.01 33.63s18.104 15.822 30.151 17.409c1.981.261 3.993.392 5.98.392 22.717 0 42.088-17.005 45.057-39.557 3.275-24.866-14.293-47.76-39.16-51.036zm19.333 48.427c-1.664 12.637-12.51 22.166-25.228 22.166a26.01 26.01 0 0 1-3.37-.222 25.34 25.34 0 0 1-16.895-9.755c-4.145-5.401-5.938-12.093-5.049-18.844 1.664-12.636 12.509-22.165 25.226-22.165 1.118 0 2.253.074 3.372.222 13.933 1.835 23.777 14.664 21.944 28.598z"/>
            <use xlink:href="#P"/>
            <use xlink:href="#Q"/>
        </g>
    </g>
    <g transform="matrix(.078125 0 0 .078125 382.6 217.768)">
        <clipPath id="B">
            <path d="M0 0h512.001v512.001H0z"/>
        </clipPath>
        <g clip-path="url(#B)" class="B C">
            <use xlink:href="#O"/>
            <path d="M108 268.276l-.145-.22c-3.041-4.559-9.295-5.808-13.854-2.767-4.587 3.054-5.831 9.253-2.795 13.848 1.915 2.942 5.119 4.547 8.392 4.547 1.914.001 3.788-.551 5.397-1.589 4.646-2.987 5.991-9.174 3.005-13.819zm-15.209-24.843c-9.745-17.086-18.505-34.968-26.036-53.147a10.02 10.02 0 0 0-9.282-6.28c-5.486 0-10 4.514-10 10a10 10 0 0 0 .806 3.934c7.85 18.951 16.982 37.591 27.14 55.401 1.845 3.234 5.221 5.048 8.695 5.048 1.68 0 3.383-.424 4.945-1.315 4.797-2.737 6.469-8.844 3.732-13.641z"/>
            <use xlink:href="#P"/>
            <use xlink:href="#Q"/>
        </g>
    </g>
    <path d="M218.451 189.8c-1.824-1.454-4.398-2.644-7.652-3.537-6.257-1.718-13.313-1.904-16.056-1.904-7.068.01-12.881 5.823-12.891 12.891v5.462c.01 7.068 5.823 12.881 12.891 12.891 3.278 0 5.739-1.027 8.345-2.114 2.695-1.124 5.482-2.286 9.401-2.286 5.163 0 9.363-4.2 9.363-9.363v-5.462c0-2.566-1.144-4.778-3.401-6.577v-.001zm-.658 13.356a.78.78 0 0 0 1.104.033c.53-.499.996-1.055 1.392-1.653v.303a7.85 7.85 0 0 1-7.801 7.801c-4.232 0-7.165 1.224-10.002 2.407-2.458 1.025-4.779 1.993-7.744 1.993-6.002 0-10.927-4.692-11.304-10.6 2.194 3.99 6.438 6.7 11.304 6.7 3.278 0 5.739-1.027 8.345-2.114 2.695-1.124 5.482-2.286 9.401-2.286a9.45 9.45 0 0 0 .874-.041c.399-.037.708-.377.708-.778 0-.429-.352-.781-.781-.781a.89.89 0 0 0-.073.003c-.242.023-.486.034-.729.034-4.232 0-7.165 1.224-10.002 2.407-2.458 1.025-4.779 1.993-7.744 1.993-6.246 0-11.328-5.082-11.328-11.328s5.082-11.328 11.328-11.328c2.68 0 9.569.18 15.643 1.848 6.572 1.805 9.904 4.701 9.904 8.607-.007 2.148-.899 4.201-2.463 5.674a.78.78 0 0 0-.033 1.104l.001.002zm-.642.499a.78.78 0 0 0-.706-.449c-.116 0-.23.026-.334.075l-.019.009a.78.78 0 0 0-.428.696c0 .428.352.78.78.78s.78-.352.78-.78c0-.114-.025-.227-.074-.331h.001zm-16.769-15.95l-.04-.003c-.021-.002-.041-.002-.062-.002-.429 0-.781.352-.781.781 0 .405.315.747.719.779l.04.003.063.003c.405 0 .746-.315.778-.719.002-.021.003-.042.003-.063 0-.405-.315-.746-.719-.778l-.001-.001zm17.857 6.568c-.775-1.532-2.499-2.855-5.125-3.934-2.125-.873-4.448-1.424-6.023-1.733l-2.94-.491c-.036-.005-.072-.008-.108-.008-.428 0-.781.353-.781.781 0 .388.289.72.673.774l2.856.477c5.366 1.052 9.031 2.816 10.055 4.839.215.425.32.883.32 1.399 0 2.578-2.098 4.676-4.676 4.676-2.607 0-5.138.426-7.739 1.302-1.12.378-2.208.829-3.26 1.265l-2.129.858c-1.802.683-3.183.974-4.618.974-4.523 0-8.203-3.68-8.203-8.203s3.68-8.203 8.203-8.203c.888 0 1.776.017 2.663.05l.451.018c.011.001.023.001.035.001.428 0 .781-.353.781-.781 0-.416-.332-.763-.747-.781l-.461-.019a72.63 72.63 0 0 0-2.721-.051 9.83 9.83 0 0 0-9.766 9.766 9.83 9.83 0 0 0 9.766 9.766c1.636 0 3.182-.322 5.172-1.076.729-.281 1.454-.573 2.174-.876 1.028-.426 2.09-.867 3.16-1.228 2.437-.821 4.806-1.221 7.24-1.221 3.44 0 6.238-2.798 6.238-6.238a4.56 4.56 0 0 0-.488-2.105l-.002.002zm-22.748-3.681c-2.184 0-3.961 1.611-3.961 3.592s1.777 3.592 3.961 3.592 3.961-1.611 3.961-3.592-1.777-3.592-3.961-3.592zm0 5.621c-1.323 0-2.399-.91-2.399-2.029s1.076-2.029 2.399-2.029 2.399.91 2.399 2.029-1.076 2.029-2.399 2.029z"
          class="B C"/>
    <g transform="matrix(.078125 0 0 .078125 280.148 83.215)">
        <clipPath id="C">
            <path d="M0 0h512v512H0z"/>
        </clipPath>
        <g clip-path="url(#C)" class="B C">
            <path d="M450.232 290.293c-4.074-4.376-9.119-8.051-14.761-10.961 6.383-42.429-16.188-84.179-56.509-105.354 8.563-13.278 10.975-28.227 6.557-42.484-5.039-16.261-18.061-29.46-34.339-35.458.169-17.006-7.836-42.777-45.187-71.876-26.797-20.882-41.759-26.732-51.649-20.204-3.605 2.381-9.123 8.387-5.557 21.888 1.63 6.085 1.694 12.175.175 16.716-3.975 11.91-10.789 20.472-19.217 27.348-1.318-4.234-3.212-8.307-5.675-12.132-7.146-11.089-18.186-18.729-31.086-21.514-9.124-1.97-18.399-1.33-26.974 1.737-3.101-9.053-1.22-15.308 3.287-22.885.952-1.565 1.455-3.363 1.455-5.194 0-5.486-4.514-10-10-10a10.01 10.01 0 0 0-8.642 4.968c-8.829 14.84-9.974 28.296-3.425 43.726-16.972 16.006-20.697 42.385-7.604 62.672 2.696 4.183 5.999 7.885 9.759 11.042-9.693 13.69-14.711 32.572-10.431 60.671-2.523.811-4.917 1.626-7.162 2.45-21.02 7.694-37.389 20.347-47.339 36.59-10.105 16.496-12.939 35.968-8.356 56.764-6.064 2.989-11.475 6.853-15.798 11.498-10.921 11.732-13.651 26.968-7.495 41.794l53.748 129.646c8.312 20.012 20.872 50.255 53.317 50.255h150.949l.211.002.21-.002h37.985c32.445 0 45.006-30.243 53.319-50.261l53.748-129.638c6.152-14.835 3.412-30.072-7.514-41.804zM267.931 48.899c3.226-9.641 2.161-19.385.825-25.547 4.557 2.164 12.354 6.772 24.944 16.583 25.256 19.676 38.207 39.371 37.454 56.957-.704 16.433-13.539 28.127-24.184 35.043-24.882 16.168-71.706 27.298-113.019 37.117l-34.155 8.383c-3.34-24.59 1.902-39.006 12.292-49.469 1.613-1.289 3.011-2.856 4.63-4.161 1.557-1.256 3.173-2.438 4.827-3.562 3.647-2.479 7.477-4.678 11.363-6.755 8.56-4.573 17.406-8.583 25.997-13.096 13.482-7.082 26.469-15.573 36.09-27.574 5.714-7.125 10.046-15.262 12.936-23.919zm-79.164 6.913c7.674 1.657 14.242 6.202 18.49 12.793 2.546 3.955 4.073 8.352 4.538 12.924-4.594 2.474-9.365 4.817-14.193 7.189-11.182 5.492-22.874 11.235-32.855 19.158-2.68-2.046-5.004-4.551-6.859-7.429-8.782-13.608-4.857-31.826 8.743-40.606 6.6-4.255 14.463-5.685 22.136-4.029zm-48.639 148.416c14.149-5.189 35.668-10.303 58.449-15.717 42.892-10.195 91.506-21.75 119.291-39.805 14.216-9.239 24.079-20.339 29.208-32.7 9.146 4.282 16.475 12.169 19.337 21.408 3.513 11.334-.081 22.852-10.388 33.302-.011.011-.023.022-.034.034s-.019.018-.029.028c-20.922 21.152-59.431 38.668-90.382 52.746-4.623 2.103-6.971 7.533-5.321 12.339 1.891 5.506 8.29 8.282 13.602 5.866 30.276-13.771 67.447-30.684 91.389-52.201 30.19 14.181 54.996 45.493 50.922 83.295-11.431-2.109-23.555-1.577-34.422 2.049-12.355 4.123-22.14 11.53-28.932 21.665-10.387-15.884-28.329-26.401-48.68-26.401-20.003 0-37.681 10.15-48.149 25.567-10.463-15.417-28.132-25.567-48.126-25.567-20.351 0-38.294 10.518-48.681 26.401-6.794-10.136-16.582-17.545-28.943-21.667-10.592-3.533-22.377-4.125-33.55-2.201-8.941-45.285 30.47-63.693 43.439-68.441zm21.197 287.77c-16.142 0-24.399-12.772-34.845-37.92L72.732 324.433c-3.157-7.603-1.925-14.502 3.662-20.504 3.939-4.232 15.778-13.262 32.586-12.407 5.11.26 10.216.748 14.935 2.322 10.438 3.481 23.389 12.438 25.87 35.34.023.249 37.171 162.815 37.171 162.815h-25.631v-.001zm143.183 0h-38.519v-32.112c0-5.523-4.478-10-10-10s-10 4.477-10 10v32.112H207.47l-37.713-164.796c.566-20.534 17.444-37.065 38.107-37.065 21.021 0 38.124 17.106 38.124 38.131v42.083c0 5.523 4.478 10 10 10s10-4.477 10-10v-42.084c0-21.025 17.114-38.131 38.151-38.131 20.663 0 37.541 16.531 38.107 37.065l-37.738 164.797zm134.765-167.561l-53.745 129.635c-10.447 25.154-18.705 37.926-34.847 37.926h-25.656l37.197-162.817c2.482-22.897 15.427-31.855 25.86-35.337 10.085-3.363 21.671-3.719 33.342.987 5.591 2.113 10.537 5.188 14.174 9.093 5.593 6.005 6.829 12.907 3.675 20.513zm-183.284 80.682c-5.522 0-10 4.477-10 10v.056c0 5.523 4.478 9.972 10 9.972s10-4.505 10-10.028c0-5.486-4.514-10-10-10z"/>
        </g>
    </g>
    <g transform="matrix(.078278 0 0 .078278 86.546 84.928)">
        <clipPath id="D">
            <path d="M0 0h511v511H0z"/>
        </clipPath>
        <g clip-path="url(#D)" class="B C">
            <path d="M422.704 75.173c-3.89 3.903-3.89 10.219 0 14.121 3.903 3.891 10.219 3.891 14.121 0 3.891-3.902 3.891-10.218 0-14.121-3.902-3.89-10.218-3.89-14.121 0zM422.689.125c-58.776 2.269-130.144 30.027-186.943 79.688-36.41-7.981-74.768 3.091-101.252 29.575-11.672 11.668-11.672 30.659 0 42.331l32.429 32.429c-20.53 59.204-24.448 122.405-24.967 154.655-17.777-11.77-38.616-18.094-60.425-18.094-29.321 0-56.881 11.415-77.613 32.148-3.868 3.871-3.868 10.238 0 14.109 20.732 20.729 48.292 32.148 77.613 32.148 13.229 0 26.094-2.331 38.137-6.787-4.452 12.047-6.784 24.912-6.784 38.14 0 29.318 11.415 56.881 32.144 77.61 1.869 1.874 4.41 2.927 7.057 2.924 2.554 0 5.107-.975 7.056-2.924 20.729-20.729 32.149-48.292 32.149-77.61 0-21.813-6.324-42.651-18.098-60.429 32.257-.514 95.458-4.428 154.663-24.959l32.425 32.425c11.668 11.669 30.658 11.669 42.327 0 26.483-26.483 37.555-64.838 29.579-101.243 43.715-50.047 77.423-120.799 79.688-188 1.013-30.117-6.168-55.887-19.213-68.928C479.457 6.129 453.301-1.053 422.689.125zM148.603 123.501c18.223-18.222 43.318-27.525 68.558-26.144-16.768 17.36-30.986 39.641-42.39 66.413l-26.168-26.164c-3.886-3.887-3.886-10.218 0-14.105zM25.957 359.914c15.773-12.476 35.153-19.248 55.574-19.248s39.802 6.772 55.575 19.248c-15.773 12.475-35.154 19.243-55.575 19.243s-39.801-6.772-55.574-19.243zm126.128 126.128c-12.476-15.774-19.244-35.154-19.244-55.575s6.768-39.801 19.244-55.575c12.476 15.778 19.247 35.154 19.247 55.575s-6.771 39.801-19.247 55.575zm236.413-122.651c-3.887 3.891-10.218 3.891-14.105 0l-26.168-26.163c26.776-11.408 49.056-25.622 66.417-42.39 1.38 25.239-7.922 50.335-26.144 68.553zm103.43-275.8c-.927 27.598-8.428 59.247-21.165 89.617-27.879 6.831-58.308 1.427-84.207-15.13-4.613-2.946-10.833-1.575-13.781 3.037-2.967 4.639-1.61 10.811 3.033 13.781 25.528 16.316 55.368 23.7 84.694 20.367-12.554 24.472-28.242 47.205-46.667 67.625v.004c-3.618 4.016-7.396 7.996-11.228 11.825-55.177 55.177-162.468 71.703-240.717 71.388-.335-78.18 16.097-185.423 71.392-240.713a303.56 303.56 0 0 1 11.832-11.225c20.507-18.502 43.197-34.159 67.645-46.709-2.3 20.585.64 42.043 8.694 62.109 2.039 5.078 7.895 7.581 12.975 5.544 5.115-2.055 7.598-7.864 5.544-12.979-8.488-21.146-10.277-44.015-5.17-64.927 30.023-12.593 61.329-20.082 88.655-21.139 27.75-1.072 47.664 5.953 55.095 13.38 7.318 7.318 14.293 26.901 13.376 54.145zM344.17 137.037c-3.89 3.902-3.89 10.218 0 14.121 3.903 3.89 10.219 3.89 14.121 0 3.891-3.903 3.891-10.219 0-14.121-3.902-3.891-10.218-3.891-14.121 0z"/>
        </g>
    </g>
    <g transform="matrix(.078125 0 0 .078125 280.365 282.355)">
        <clipPath id="E">
            <path d="M0 0h512.001v512.001H0z"/>
        </clipPath>
        <g clip-path="url(#E)" class="B C">
            <path d="M460.151 121.862c-5.487 0-10.001 4.514-10.001 10 0 5.532 4.471 10.002 10.001 10.002 5.487 0 10.001-4.514 10.001-10 .001-5.522-4.48-10.002-10.001-10.002zM340.134 61.853c-5.487 0-10.001 4.514-10.001 10 0 5.532 4.471 10.002 10.001 10.002 5.487 0 10.001-4.514 10.001-10 .001-5.521-4.48-10.002-10.001-10.002zm-40.006 80.012c-5.487 0-10.001 4.514-10.001 10 0 5.532 4.471 10.002 10.001 10.002 5.487 0 10.001-4.514 10.001-10 .001-5.522-4.48-10.002-10.001-10.002zm-20.002-60.009c-5.487 0-10.001 4.514-10.001 10 0 5.532 4.471 10.002 10.001 10.002 5.487 0 10.001-4.514 10.001-10s-4.516-9.997-10.001-10.002zm182.379 80.048c-5.454-.578-10.42 3.428-11.008 8.881-2.44 22.824-12.373 43.531-28.724 59.883-15.446 15.455-34.99 25.239-56.519 28.292-5.469.775-9.273 5.838-8.498 11.307.708 4.994 4.989 8.599 9.889 8.599.467 0 .941-.033 1.417-.101 25.857-3.667 49.322-15.409 67.856-33.955 19.618-19.617 31.537-44.479 34.468-71.898.587-5.492-3.39-10.42-8.881-11.008zm2.706-115.116c-62.394-62.384-163.917-62.385-226.315.002-24.716 24.726-40.368 56.029-45.264 90.525-6.535 45.959-9.255 91.302-39.027 121.073-.526.653-8.258 7.288-12.483 19.608-3.924 11.359-3.612 23.597.712 34.589l-57.456 57.459c-19.496-19.495-51.216-19.495-70.71-.002-19.555 19.543-19.556 51.17-.002 70.724 11.553 11.554 27.395 16.261 42.448 14.123-2.138 15.05 2.568 30.896 14.12 42.448 19.547 19.546 51.174 19.559 70.722 0 19.496-19.496 19.496-51.217.015-70.698l57.46-57.488c19.5 7.665 40.993 2.166 54.295-11.883 28.377-29.489 77.771-32.761 120.956-38.898 34.496-4.896 65.8-20.547 90.53-45.267 62.385-62.396 62.385-163.919-.001-226.315zm-345.36 373.656a10.01 10.01 0 0 0-2.924 7.07 10.02 10.02 0 0 0 4.926 8.623c16.771 9.865 19.849 33.167 5.957 47.059-11.725 11.732-30.695 11.735-42.431-.002-11.697-11.696-11.697-30.727 0-42.423 3.906-3.907 3.906-10.238 0-14.145s-10.238-3.905-14.145 0c-11.696 11.696-30.727 11.697-42.423 0-11.732-11.733-11.74-30.703 0-42.435 13.868-13.87 37.175-10.838 47.056 5.959 3.315 5.637 11.068 6.626 15.693 2.002l62.478-62.479c4.879 4.887 10.711 8.698 17.09 11.202 2.515 6.408 6.329 12.227 11.201 17.091l-62.478 62.478zm331.22-161.485c-21.638 21.63-49.024 35.326-79.198 39.609-46.717 6.636-99.473 10.451-132.607 44.884-.12.126-.24.245-.366.371-16.548 16.55-44.358 8.47-50.193-13.434a10.01 10.01 0 0 0-7.09-7.09c-16.552-4.411-26.345-22.102-20.579-38.791 2.509-7.315 7.413-11.621 7.645-11.907 34.399-33.141 38.208-86.42 44.754-132.473 4.284-30.173 17.98-57.559 39.606-79.194 54.597-54.587 143.431-54.587 198.026 0 54.588 54.596 54.588 143.431.002 198.025z"/>
        </g>
    </g>
    <g transform="matrix(.078125 0 0 .078125 80.805 292.823)">
        <clipPath id="F">
            <path d="M0 0h512v512H0z"/>
        </clipPath>
        <g clip-path="url(#F)" class="B C">
            <path d="M499.226 88.929c-16.73-23.917-47.453-40.593-70.494-45.449-.823-.746-1.653-1.489-2.515-2.213-27.166-22.828-67.098-28.885-94.885-27.186-7.865-6.063-16.934-10.22-27.184-12.385-37.555-7.937-81.654 13.338-110.203 35.406-5.739-2.252-11.983-3.018-18.784-2.309-38.077 3.971-70.337 18.938-95.883 44.484s-40.514 57.807-44.484 95.883c-.709 6.802.056 13.045 2.307 18.784-22.074 28.558-43.329 72.627-35.41 110.182 2.163 10.259 6.322 19.335 12.389 27.206-1.699 27.765 4.382 67.813 27.253 94.965.702.834 1.423 1.635 2.146 2.433 4.858 23.048 21.567 53.816 45.498 70.53 12.062 8.424 25.152 12.74 38.384 12.74 3.724-.001 7.44-.341 11.102-1.015 11.939-2.188 27.494-11.002 33.799-40.565 3.984-18.677 2.828-38.539 1.813-48.545 7.534-15.761 13.506-43.543 15.509-53.578 1.814-1.284 3.561-2.66 5.235-4.123 11.576-10.163 25.863-33.179 29.948-65.748 16.924-2.933 32.583-11.688 47.277-26.382 14.701-14.7 23.469-30.366 26.401-47.297 30.617-3.918 54.756-17.431 65.728-29.928a65.12 65.12 0 0 0 4.115-5.223c9.165-1.827 37.58-7.871 53.587-15.521a193.78 193.78 0 0 0 19.286.977c8.967 0 19.275-.661 29.245-2.787 29.573-6.304 38.39-21.861 40.578-33.802 3.11-16.961-.956-34.089-11.758-49.534zm-64.818 8.636c3.212 39.806-8.587 51.628-19.225 57.481-7.897 4.343-23.564 8.775-36.771 11.905 1.57-12.006-.475-31.875-6.123-59.303-5.709-27.722-13.718-55.125-19.476-66.641-1.211-2.423-2.504-4.724-3.856-6.936 22.402 1.387 47.407 8.234 64.392 22.506 12.636 10.621 19.722 24.41 21.059 40.988zM34.077 348.962c2.21 1.351 4.51 2.643 6.931 3.854 11.516 5.758 38.919 13.767 66.641 19.476 21.475 4.422 38.319 6.638 50.384 6.638 3.339 0 6.294-.177 8.897-.517-3.053 12.832-7.5 28.803-11.884 36.771-5.853 10.638-17.678 22.437-57.482 19.227-16.551-1.335-30.322-8.399-40.934-20.997-14.291-16.97-21.157-42.03-22.553-64.452zm100.779 142.351c-11.732 2.149-23.317-.693-34.428-8.452-11.8-8.241-21.59-21.042-28.346-33.999 7.39 2.955 15.353 4.796 23.873 5.483 4.615.372 9.578.645 14.712.645 14.817 0 31.039-2.275 44.307-10.973-.471 22.128-5.635 44.641-20.118 47.296zm123.045-233.411c-20.283 20.284-41.781 26.063-67.656 18.184-5.282-1.61-10.87 1.371-12.479 6.654-.287.944-.434 1.926-.434 2.913 0 4.388 2.89 8.288 7.088 9.566 6.866 2.091 13.535 3.415 20.025 3.992-3.704 23.725-13.961 42.154-22.821 49.931-4.033 3.54-8.765 6.394-14.89 8.979-3.786 1.6-21.571 1.474-55.052-5.422-25.794-5.312-51.755-12.786-61.73-17.773-16.042-8.021-25.426-19.446-28.692-34.927-5.79-27.459 9.183-62.955 28.267-89.289 2.551 2.187 5.428 4.276 8.64 6.27 14.01 8.699 28.231 19.017 41.984 28.994l3.711 2.691c4.473 3.241 10.725 2.242 13.966-2.229s2.242-10.725-2.23-13.967l-3.703-2.685c-14.04-10.186-28.557-20.717-43.178-29.796-12.788-7.938-14.858-14.838-14.033-22.754 3.482-33.396 16.515-61.595 38.734-83.815s50.418-35.252 83.814-38.734c7.915-.819 14.815 1.245 22.755 14.032 9.091 14.642 19.638 29.18 29.838 43.239 39.265 54.115 73.173 100.849 28.076 145.946zm41.32-53.454c-.589-6.639-1.961-13.465-4.135-20.497-8.672-28.061-29.209-56.366-49.069-83.739-9.992-13.772-20.326-28.014-29.036-42.043-1.994-3.212-4.084-6.089-6.271-8.64 26.335-19.081 61.853-34.063 89.305-28.263 15.474 3.269 26.894 12.652 34.911 28.689 4.987 9.974 12.463 35.936 17.774 61.73 6.895 33.48 7.02 51.267 5.421 55.052-2.586 6.126-5.439 10.857-8.979 14.889-7.823 8.91-26.215 19.125-49.921 22.822zm192.092-69.591c-2.656 14.485-25.168 19.646-47.299 20.118 11.712-17.864 11.778-41.084 10.331-59.019-.688-8.522-2.529-16.486-5.484-23.877 12.941 6.746 25.727 16.522 33.974 28.314 7.778 11.121 10.631 22.716 8.478 34.464zm-200.456-83.45h-.007c-5.485.002-9.997 4.515-9.997 10 0 5.523 4.481 10.001 10.004 10.001s10-4.478 10-10.001c0-5.486-4.514-10-10-10zm-96.001 83.002h-.007c-5.485.001-9.998 4.515-9.998 10 0 5.523 4.481 10.001 10.005 10.001s10-4.478 10-10.001-4.478-10-10-10zm-74.002-12h-.007c-5.485.002-9.997 4.515-9.997 10 0 5.522 4.481 10 10.004 10s10-4.478 10-10-4.478-10-10-10zM75.345 295.413h-.007c-5.485.002-9.997 4.515-9.997 10 0 5.522 4.481 10 10.004 10s10-4.478 10-10-4.477-10-10-10zm27.508 117.003c5.524 0 10.001-4.478 10.001-10.001s-4.477-10-10.001-10h-.007c-5.485.002-9.997 4.515-9.997 10 0 5.523 4.481 10.001 10.004 10.001zM146.8 256.089h-.007c-5.484.002-9.996 4.516-9.996 10 0 5.522 4.48 10 10.003 10s10.001-4.478 10.001-10-4.477-10-10.001-10z"/>
        </g>
    </g>
    <g transform="matrix(.078125 0 0 .078125 165.574 380.062)">
        <clipPath id="G">
            <path d="M0 0h512v512H0z"/>
        </clipPath>
        <g clip-path="url(#G)" class="B C">
            <use xlink:href="#R"/>
            <path d="M187.441 131.07c1.794 1.497 4.058 2.317 6.395 2.317 2.863 0 5.711-1.227 7.687-3.602l.008-.004c3.532-4.242 2.957-10.543-1.285-14.082-4.218-3.507-10.572-2.927-14.086 1.285-3.535 4.243-2.961 10.547 1.281 14.086z"/>
        </g>
    </g>
    <g transform="matrix(.078125 0 0 .078125 165.574 -19.9)">
        <clipPath id="H">
            <path d="M0 0h512v512H0z"/>
        </clipPath>
        <g clip-path="url(#H)" class="B C">
            <use xlink:href="#R"/>
            <path d="M171.512 449.211l-.008.004c-4.212 3.513-4.788 9.869-1.277 14.082 1.976 2.375 4.82 3.598 7.687 3.598 2.258 0 4.531-.762 6.399-2.317 4.242-3.539 4.816-9.844 1.281-14.086-3.512-4.213-9.868-4.791-14.082-1.281zm73.16-67.418l-44.121 40.648c-4.034 3.717-4.294 10.095-.578 14.129 1.89 2.058 4.561 3.23 7.355 3.227 2.422 0 4.852-.875 6.77-2.649l44.125-40.644c4.034-3.717 4.294-10.095.578-14.129-3.742-4.066-10.067-4.324-14.129-.582z"/>
        </g>
    </g>
    <defs>
        <path id="J"
              d="M473.367 349.039c2.758-5.219 4.223-11.062 4.223-17.129 0-6.031-1.469-11.722-4.055-16.75h.293c10.199 0 19.785-3.972 26.992-11.18S512 287.184 512 276.988c0-12.789-6.328-24.117-16.012-31.047 7.282-7.554 11.77-17.816 11.77-29.113 0-45.629-17.77-88.531-50.035-120.801C425.457 63.766 382.563 46 336.93 46H175.07C80.875 46 4.238 122.633 4.238 216.828c0 10.945 4.172 21.242 11.742 29.106a38.72 38.72 0 0 0-4.8 4.066C3.969 257.207 0 266.793 0 276.988c0 21.047 17.121 38.172 38.172 38.172h.266c-2.656 5.183-4.037 10.926-4.028 16.75a36.51 36.51 0 0 0 4.25 17.125c-19.414 2.676-34.422 19.363-34.422 39.5v15.735c0 34.449 28.028 62.472 62.473 62.472h378.578c34.445 0 62.473-28.023 62.473-62.472v-15.735c0-20.129-14.992-36.808-34.395-39.496zm13.313-59.199c-3.434 3.43-7.992 5.32-12.852 5.32H416.68v-36.34h57.152c10.02 0 18.168 8.149 18.168 18.168 0 4.856-1.891 9.418-5.32 12.852zm-206.047 25.32c-3.313 6.942-10.399 11.746-18.59 11.746s-15.273-4.804-18.59-11.746h37.18zm-75.535-20c.117-.25.215-.504.332-.754l.968-2.226.485-1.2c.289-.738.566-1.48.832-2.226l.406-1.16a76.8 76.8 0 0 0 .828-2.653l.227-.761c.32-1.141.609-2.293.875-3.453.066-.293.121-.594.183-.887l.512-2.633.199-1.242c.122-.783.23-1.569.325-2.356l.148-1.296a65.91 65.91 0 0 0 .203-2.473l.078-1.145a68.02 68.02 0 0 0 .102-3.613v-6.262h77.758c6.863 4.743 27.031 19.235 42.867 36.34H205.098zm-69.868 20.348c-12.515-1.438-24.057-7.486-32.363-16.957-8.129-9.235-12.605-21.121-12.605-33.473v-6.258h101.539v6.258c0 .774-.02 1.543-.055 2.313-.036.811-.093 1.621-.172 2.429-.992 10.625-5.301 20.688-12.39 28.746a50.79 50.79 0 0 1-38.153 17.286c-.91-.001-1.821-.026-2.73-.075-1.031-.054-2.055-.152-3.071-.269zm226.254-15.828c-.636-.973-1.281-1.926-1.949-2.871-.008-.016-.019-.028-.027-.043l-2.035-2.809c-.02-.023-.039-.051-.059-.074-.687-.922-1.391-1.836-2.109-2.746-.032-.039-.059-.074-.09-.114l-2.172-2.675-.117-.145-2.219-2.609-.156-.176-2.254-2.531a5.45 5.45 0 0 0-.192-.211l-2.273-2.457a6.57 6.57 0 0 1-.23-.242l-2.286-2.375-.261-.266-2.289-2.297-.293-.289-2.285-2.223-.309-.297-2.281-2.148-.328-.305-2.266-2.078-.344-.308-2.246-2.004-.34-.301-2.226-1.941-.332-.286-2.207-1.882-.313-.258-2.187-1.824c-.031-.024-.061-.049-.09-.075h73.961v40.7c.001 1.188-.132 2.372-.395 3.531-.652 3.019-2.172 5.793-4.379 8.008-3.059 3.073-7.223 4.798-11.558 4.789-6.11 0-11.59-3.235-14.301-8.442-1.32-2.531-2.859-5.136-4.563-7.726zM175.07 66h161.86c40.289 0 78.164 15.688 106.648 44.172 28.492 28.488 44.184 66.367 44.184 106.656 0 12.125-9.867 21.992-21.992 21.992H46.23c-5.875 0-11.394-2.289-15.55-6.441s-6.442-9.676-6.442-15.551C24.238 133.66 91.902 66 175.07 66zM20 276.988c0-4.851 1.891-9.418 5.32-12.847a18.06 18.06 0 0 1 12.852-5.321h32.09v6.258c0 1.211.039 2.414.097 3.617.02.383.051.762.079 1.141.054.828.121 1.652.207 2.477l.144 1.292.328 2.364.199 1.238c.153.887.329 1.766.516 2.645l.18.871c.261 1.164.551 2.316.875 3.465.066.242.144.476.215.714.261.907.543 1.809.843 2.703.125.375.258.743.391 1.114.271.769.556 1.534.855 2.293l.457 1.136c.326.782.664 1.558 1.016 2.329l.297.683H38.172c-10.02 0-18.172-8.152-18.172-18.172zm71.035 38.172c.422.422.863.824 1.297 1.235l1.016.964c.621.567 1.257 1.11 1.898 1.653l.844.73c1.871 1.539 3.816 2.977 5.824 4.309.32.211.649.406.969.609l2.09 1.305c.398.234.804.453 1.207.683l1.941 1.071c.438.23.883.445 1.324.668l1.907.926c.464.214.933.417 1.406.621l1.906.804 1.457.563c.641.242 1.281.472 1.926.695l1.496.496c.648.207 1.301.403 1.957.59l1.516.422c.667.174 1.336.338 2.007.492l1.52.344c.687.144 1.379.269 2.07.39l1.5.262c.723.113 1.453.207 2.18.297l1.43.176c.804.086 1.617.14 2.429.195l1.207.094c1.219.062 2.442.098 3.668.098 1.231 0 2.453-.036 3.668-.098.407-.024.805-.063 1.207-.094l2.434-.195c.48-.051.953-.117 1.43-.18l2.179-.293c.504-.078 1.004-.172 1.504-.262l2.063-.39 1.535-.348 1.988-.484 1.539-.43 1.926-.582 1.531-.508c.63-.215 1.256-.44 1.879-.675l1.512-.586a67.2 67.2 0 0 0 1.836-.774l1.476-.652c.606-.281 1.207-.578 1.805-.879l1.43-.719c.601-.316 1.195-.652 1.793-.988l1.355-.766c.621-.371 1.227-.758 1.836-1.148l1.219-.77c.773-.511 1.527-1.047 2.277-1.59l1.047-.765c.829-.617 1.643-1.254 2.442-1.91.371-.301.722-.621 1.085-.934l1.661-1.445c.386-.352.757-.719 1.136-1.082l1.207-1.145h31.414c4.047 18.141 20.262 31.746 39.606 31.746s35.555-13.605 39.601-31.746h45.86l.805 1.488c6.171 11.844 18.449 19.2 32.039 19.2 9.691 0 18.812-3.774 25.703-10.649.554-.554 1.082-1.133 1.597-1.719.094-.113.196-.218.289-.332.485-.562.95-1.14 1.395-1.73l.289-.391a39.38 39.38 0 0 0 1.277-1.839l.129-.215a35.37 35.37 0 0 0 1.028-1.727l.293-.527c.279-.514.545-1.035.796-1.563h27.704c9.23 0 16.742 7.516 16.742 16.75 0 4.477-1.742 8.68-4.903 11.84-3.132 3.149-7.398 4.915-11.839 4.902H71.148c-9.226 0-16.738-7.511-16.738-16.742 0-4.472 1.738-8.676 4.91-11.843 3.153-3.165 7.356-4.907 11.828-4.907h19.887v.004zm396.727 89.11c0 23.418-19.055 42.472-42.473 42.472H66.711c-23.418 0-42.473-19.054-42.473-42.472v-15.735c0-10.965 8.922-19.883 19.887-19.883h423.75c10.965 0 19.883 8.918 19.883 19.883v15.735h.004z"/>
        <path id="K"
              d="M256.66 193.68c.25.601.559 1.179.918 1.718.361.549.777 1.06 1.242 1.524s.969.879 1.52 1.25c.539.359 1.129.668 1.73.918a10.07 10.07 0 0 0 1.868.57c.64.129 1.3.199 1.953.199.66 0 1.308-.07 1.957-.199.64-.129 1.261-.32 1.871-.57.601-.25 1.177-.558 1.719-.918.55-.371 1.062-.781 1.523-1.25.469-.461.879-.973 1.25-1.524.359-.539.668-1.117.918-1.718.25-.61.441-1.231.57-1.871a10.09 10.09 0 0 0 .192-1.961c0-.649-.063-1.309-.192-1.95a9.89 9.89 0 0 0-.57-1.867c-.25-.601-.559-1.191-.918-1.73-.363-.548-.782-1.058-1.25-1.52s-.974-.882-1.523-1.242c-.542-.36-1.118-.668-1.719-.918a10.44 10.44 0 0 0-1.871-.57c-3.25-.66-6.7.41-9.028 2.73-.466.461-.883.971-1.242 1.52-.359.539-.668 1.129-.918 1.73a9.89 9.89 0 0 0-.57 1.867 9.98 9.98 0 0 0-.199 1.95 10.09 10.09 0 0 0 .199 1.961c.129.64.32 1.261.57 1.871z"/>
        <path id="L"
              d="M403.988 199.148c.254.604.562 1.183.922 1.731a10.08 10.08 0 0 0 1.238 1.519c.461.461.973.883 1.524 1.243.539.359 1.117.668 1.719.918a10.36 10.36 0 0 0 1.879.57c.64.129 1.3.191 1.949.191a10.01 10.01 0 0 0 1.961-.191c.629-.129 1.261-.32 1.871-.57.597-.25 1.179-.559 1.719-.918.55-.36 1.062-.782 1.519-1.243s.883-.976 1.242-1.519a10.58 10.58 0 0 0 .918-1.731c.25-.597.449-1.226.571-1.867a10.09 10.09 0 0 0 .199-1.961c-.003-.655-.07-1.307-.199-1.949-.122-.641-.321-1.273-.571-1.871a10.57 10.57 0 0 0-.918-1.73c-.359-.54-.781-1.059-1.242-1.52s-.969-.879-1.519-1.238a9.94 9.94 0 0 0-1.719-.922c-.61-.25-1.242-.442-1.871-.57-1.301-.258-2.621-.258-3.91 0-.643.129-1.272.32-1.879.57s-1.18.558-1.719.922a9.54 9.54 0 0 0-1.524 1.238 10.97 10.97 0 0 0-1.25 1.52 10.57 10.57 0 0 0-.918 1.73c-.25.602-.441 1.23-.57 1.871s-.191 1.295-.191 1.949a10.01 10.01 0 0 0 .191 1.961c.129.637.328 1.27.578 1.867z"/>
        <path id="M"
              d="M189.25 402.18c-.25-.602-.559-1.18-.922-1.731a10.37 10.37 0 0 0-1.238-1.519c-.461-.461-.969-.871-1.52-1.242-.545-.363-1.124-.67-1.73-.918a10.03 10.03 0 0 0-1.871-.571 9.77 9.77 0 0 0-3.899 0 10.03 10.03 0 0 0-1.871.571c-.609.25-1.187.558-1.73.918-.547.371-1.059.781-1.52 1.242a10.37 10.37 0 0 0-1.238 1.519c-.36.548-.668 1.127-.922 1.731s-.437 1.23-.57 1.871c-.129.648-.199 1.297-.199 1.949a10.09 10.09 0 0 0 .199 1.961c.133.637.32 1.269.57 1.867.254.604.562 1.183.922 1.731a9.55 9.55 0 0 0 1.238 1.511 9.9 9.9 0 0 0 1.52 1.25c.543.36 1.121.668 1.73.918a10.03 10.03 0 0 0 1.871.571 9.98 9.98 0 0 0 1.95.199c.652 0 1.308-.07 1.949-.199a10.03 10.03 0 0 0 1.871-.571c.606-.248 1.185-.555 1.73-.918.551-.371 1.059-.781 1.52-1.25a9.55 9.55 0 0 0 1.238-1.511c.363-.551.672-1.129.922-1.731s.449-1.23.57-1.867c.129-.652.2-1.301.2-1.961 0-.652-.071-1.301-.2-1.949-.121-.641-.32-1.27-.57-1.871z"/>
        <path id="N"
              d="M182.629 130.281c.25.598.562 1.18.922 1.719a10.15 10.15 0 0 0 1.238 1.52c.473.472.981.878 1.52 1.25.55.359 1.132.671 1.73.921s1.231.438 1.871.571c.649.129 1.301.187 1.961.187a9.89 9.89 0 0 0 1.949-.187c.641-.129 1.27-.321 1.871-.571s1.18-.562 1.731-.921c.539-.372 1.058-.778 1.519-1.25.457-.461.879-.969 1.239-1.52.359-.539.672-1.121.922-1.719.248-.605.438-1.231.57-1.871a10.01 10.01 0 0 0 .187-1.961c0-.648-.058-1.308-.187-1.949s-.32-1.27-.57-1.871c-.25-.606-.559-1.185-.922-1.731a9.93 9.93 0 0 0-1.239-1.519c-.461-.457-.98-.879-1.519-1.238-.548-.359-1.127-.668-1.731-.922s-1.23-.438-1.871-.571a10.01 10.01 0 0 0-3.91 0c-.64.133-1.269.321-1.871.571s-1.183.563-1.73.922c-.543.366-1.052.781-1.52 1.238a10.37 10.37 0 0 0-1.238 1.519 10.01 10.01 0 0 0-.922 1.731c-.25.601-.438 1.23-.57 1.871s-.188 1.301-.188 1.949a10.01 10.01 0 0 0 .188 1.961 10.8 10.8 0 0 0 .57 1.871z"/>
        <path id="O"
              d="M509.026 2.885C506.294.189 502.255-.711 498.642.583L83.289 148.68c-14.43-8.824-32.733-10.89-49.52-3.939-27.865 11.543-41.146 43.604-29.604 71.471 27.219 65.708 66.518 124.525 116.809 174.816s109.107 89.591 174.816 116.809c6.824 2.826 13.897 4.164 20.861 4.164 21.475-.001 41.894-12.726 50.609-33.769 5.864-14.158 5.31-29.396-.299-42.48L511.462 13.238c1.241-3.627.292-7.66-2.436-10.353zM146.179 147.489l44.02-15.694c5.224 5.561 7.678 13.188 6.678 20.752a25.34 25.34 0 0 1-9.755 16.896 25.32 25.32 0 0 1-15.548 5.336c-7.925 0-15.407-3.721-20.19-10.041-3.819-4.977-5.636-11.049-5.205-17.249zm202.603 323.088c-7.322 17.678-27.664 26.103-45.338 18.779-128.04-53.035-227.763-152.759-280.8-280.799a34.48 34.48 0 0 1 0-26.558c3.499-8.513 10.266-15.28 18.779-18.779a34.48 34.48 0 0 1 26.558 0c8.513 3.499 15.28 10.266 18.779 18.779 22.701 54.807 55.481 103.865 97.429 145.813s91.006 74.727 145.813 97.429c17.678 7.321 26.103 27.66 18.78 45.336zm88.843-303.248c-.905-.022-1.811-.074-2.715-.192-12.612-1.575-22.182-12.415-22.182-25.125a25.37 25.37 0 0 1 .239-3.472c1.835-13.934 14.66-23.776 28.599-21.944 4.3.566 8.337 2.234 11.78 4.771l-15.721 45.962zm22.368-65.406a45.5 45.5 0 0 0-15.817-5.156c-24.871-3.283-47.764 14.294-51.038 39.163-1.586 12.046 1.614 23.989 9.011 33.629 7.04 9.223 17.371 15.387 28.831 17.201l-19.876 58.119-22.858-17.54c-4.381-3.36-10.66-2.536-14.021 1.846s-2.535 10.659 1.846 14.021l28.205 21.642-51.694 151.155c-4.336-3.77-9.329-6.924-14.922-9.241-105.98-43.899-188.52-126.439-232.417-232.417a54.65 54.65 0 0 0-5.609-10.26l26.779-9.548c.935 8.068 4.032 15.764 9.105 22.375a45.2 45.2 0 0 0 30.151 17.407c2.018.266 4.03.398 6.032.398 9.948 0 19.572-3.25 27.597-9.407 9.594-7.319 15.867-18.185 17.409-30.153 1.423-10.815-1.101-21.527-6.768-30.401l124.307-44.322 4.711 11.374c1.596 3.851 5.319 6.176 9.243 6.176 1.312-.001 2.611-.26 3.823-.764 5.102-2.113 7.525-7.964 5.412-13.066l-4.326-10.445 132.719-47.322-25.835 75.536z"/>
        <path id="P"
              d="M244.375 210.946l-30.736-4.047c-.46-.065-.924-.097-1.389-.097-5.486 0-10 4.514-10 10a10.04 10.04 0 0 0 8.777 9.925l30.736 4.047c.437.058.877.087 1.318.087 4.941 0 9.239-3.663 9.901-8.695.716-5.438-3.169-10.503-8.607-11.22z"/>
        <path id="Q"
              d="M228.79 284.743l-2.714-20.624a10.04 10.04 0 0 0-9.927-8.792c-5.486 0-10 4.514-10 10a9.96 9.96 0 0 0 .099 1.402l2.715 20.624c.662 5.033 4.959 8.696 9.901 8.696a10.01 10.01 0 0 0 1.317-.087c5.439-.716 9.325-5.78 8.609-11.219z"/>
        <path id="R"
              d="M495.871 200.633c-3.703-3.926-7.199-7.633-8.676-11.274-3.707-9.132-3.711-13.097-3.382-14.648.285-1.348 1.199-2.348 3.742-4.867 1.164-1.153 2.48-2.461 3.812-4.004 9.414-10.926 9.656-25.813.602-37.055-9.551-11.847-25.547-15.066-38.895-7.82-6.047 3.281-9.82 3.773-11.34 3.133-.921-.387-2.742-2.004-4.589-8.485-5.602-19.629-14.84-31.394-27.461-34.976-9.344-2.653-18-.141-24.508 3.222-2.321-3.062-5.336-6.07-9.188-8.941-6.48-4.828-11.136-14.496-7.703-22.32 5.516-12.571 2.844-25.434-6.972-33.575-10.77-8.933-27.016-9.652-38.637-1.714-7.91 5.406-10.828 5.437-11.715 5.195-1.203-.32-3.332-2.418-5.707-7.348C300.672 5.648 291.391 0 280.387 0h-.328c-13.446.141-25.856 8.367-31.614 20.961-3.797 8.312-3.504 18.32-3.218 28.004.125 4.226.265 9.129-.118 12.844-6.617 1.269-12.578 4.55-17.152 9.543l-14.465 15.789c-3.73 4.074-3.457 10.398.617 14.129s10.395 3.453 14.125-.622l14.469-15.789c2.09-2.281 5.055-3.578 8.348-3.644 3.672-.106 7.269 1.359 9.851 3.949 24.196 24.266 33.09 67.555 25.305 122.375-8.98 1.691-18.195 3.762-27.652 6.246-72.016 18.918-145.848 58.129-197.504 104.887-15.668 14.183-7.836 34.641-5.258 41.359 2.82 7.364 6.949 15.36 11.918 24.02-20.844-13.52-45.223-32.031-47.535-47.692-.469-3.183-.41-8.152 5.496-14.601l148.527-162.125a10 10 0 0 0 2.526-6.644c0-5.486-4.514-10-10-10a10 10 0 0 0-7.272 3.136L10.926 308.246c-8.637 9.426-12.18 19.867-10.531 31.027 4.046 27.446 40.117 52.325 78.488 75.118l11.484 6.945 6.922 11.516c22.746 38.5 47.566 74.683 74.973 78.722 1.761.262 3.504.391 5.23.391 9.18 0 17.813-3.676 25.727-10.969l236.238-217.637c1.998-1.839 3.746-3.932 5.199-6.226 3.289.633 6.801.961 10.453.961 8.715 0 18.157-1.797 26.895-5.356 14.117-5.75 23.918-15.047 27.594-26.176 7.672-23.253-4.696-36.359-13.727-45.929zM266.637 29.273c2.898-6.343 8.929-9.23 13.625-9.277h.133c3.312 0 5.617 1.293 6.843 3.844 4.852 10.058 10.922 15.941 18.559 17.98 10.48 2.801 20.555-2.804 28.16-8.004 4.762-3.25 11.156-2.25 14.59.598 2.898 2.406 3.367 5.723 1.426 10.145-7.797 17.769 1.175 36.793 14.07 46.394 7.328 5.461 9.352 10.852 6.016 16.024-3.235 5.007-10.52 8.418-17.036 7.121-4.789-19.059-15.199-27.215-23.464-30.696-11.86-4.996-26.817-3.48-41.426 3.879-3.84-5.922-8.192-11.347-13.071-16.242-2.925-2.934-6.363-5.266-10.101-6.926.566-5.062.414-10.449.258-15.738-.207-7.047-.442-15.031 1.418-19.102zm30.804 75.723c9.125-4.492 18.161-5.773 24.356-3.164 6.461 2.723 10.742 9.902 12.723 21.348.941 5.457-3.454 10.773-6.157 13.453-5.773 5.73-13.886 9.855-20.425 11.48-1.653-15.949-5.153-30.375-10.497-43.117zm11.582 63.238c8.829-1.476 18.438-5.617 26.555-11.566 14.684 4.523 31.418 12.781 30.809 46.93-17.992-2.243-37.957-2.012-59.567.695 1.567-12.641 2.297-24.672 2.203-36.059zm119.54 58.34c-11.891-8.777-26.09-15.207-42.293-19.277.515-11.68-.559-21.871-3.239-30.695 12.461-2.356 26.907 1.898 36.532 11.484 6.21 6.184 14.515 18.719 9 38.488zM189.668 486.289c-6.406 5.902-11.34 5.965-14.492 5.504-21.735-3.207-49.016-49.391-60.668-69.109l-14.887-24.477c-18.598-30.105-34.66-56.105-25.148-64.715 48.652-44.035 121.136-82.496 189.164-100.371 27.812-7.305 53.597-10.914 76.527-10.914 37.195 0 66.875 9.5 85.438 28.117 2.589 2.598 4.031 6.211 3.953 9.918-.071 3.32-1.367 6.305-3.649 8.406L189.668 486.289zm300.934-245.996c-1.782 5.394-7.668 10.469-16.149 13.926-9.152 3.73-18.453 4.504-24.984 3.488-.379-5.625-2.176-11.074-5.164-15.801 10.668-25.496 6.875-50.558-10.629-67.992-15.836-15.769-39.785-21.676-59.926-15.605-.664-.863-1.356-1.705-2.074-2.524-6.262-7.125-13.707-11.691-21.481-14.984 1.207-2.145 2.18-4.328 2.899-6.539.871.066 1.746.113 2.617.113 12.719 0 24.937-6.934 31.148-16.555 2.621-4.058 4.45-9.086 4.703-14.539 3.653-2.433 8.54-4.586 12.661-3.41 5.355 1.52 10.218 9.059 13.687 21.227 1.18 4.125 4.758 16.683 16.074 21.437 7.957 3.34 17.586 2 28.629-3.996 5.918-3.215 11.125-.5 13.782 2.797 1.406 1.746 4.21 6.359-.176 11.445-.817.949-1.754 1.875-2.742 2.856-8.403 8.332-14.571 17.183-4.817 41.238 2.891 7.117 8.082 12.625 12.668 17.48 8.684 9.207 13.039 14.54 9.274 25.938z"/>
    </defs>
</svg>
